<svg width="445" height="403" viewBox="0 0 445 403" fill="none" xmlns="http://www.w3.org/2000/svg">
<path d="M82.2778 36L77.3578 8H79.9578L84.4378 34.48H84.9178L90.7178 8H95.4378L101.238 34.48H101.718L106.198 8H108.798L103.878 36H99.1178L93.3178 9.52H92.8378L87.0378 36H82.2778ZM122.222 36.56C120.222 36.56 118.476 36.1467 116.982 35.32C115.516 34.4667 114.369 33.28 113.542 31.76C112.716 30.24 112.302 28.4933 112.302 26.52V26.04C112.302 24.04 112.716 22.2933 113.542 20.8C114.369 19.28 115.502 18.1067 116.942 17.28C118.409 16.4267 120.076 16 121.942 16C123.756 16 125.356 16.3867 126.742 17.16C128.156 17.9067 129.262 19 130.062 20.44C130.862 21.8533 131.262 23.5467 131.262 25.52V26.8H114.702C114.782 29.2267 115.516 31.1067 116.902 32.44C118.316 33.7467 120.089 34.4 122.222 34.4C124.036 34.4 125.436 33.9867 126.422 33.16C127.436 32.3333 128.209 31.32 128.742 30.12L130.902 31.08C130.502 31.96 129.942 32.8267 129.222 33.68C128.529 34.5067 127.622 35.2 126.502 35.76C125.382 36.2933 123.956 36.56 122.222 36.56ZM114.742 24.72H128.822C128.716 22.6133 128.036 21 126.782 19.88C125.529 18.7333 123.916 18.16 121.942 18.16C119.996 18.16 118.382 18.7333 117.102 19.88C115.822 21 115.036 22.6133 114.742 24.72ZM137.168 36V8H139.568V36H137.168ZM155.502 36.56C153.608 36.56 151.915 36.16 150.422 35.36C148.955 34.5333 147.795 33.36 146.942 31.84C146.088 30.32 145.662 28.5333 145.662 26.48V26.08C145.662 24 146.088 22.2133 146.942 20.72C147.795 19.2 148.955 18.04 150.422 17.24C151.915 16.4133 153.608 16 155.502 16C157.368 16 158.942 16.36 160.222 17.08C161.528 17.7733 162.542 18.6933 163.262 19.84C164.008 20.96 164.475 22.1467 164.662 23.4L162.302 23.88C162.168 22.84 161.835 21.8933 161.302 21.04C160.768 20.16 160.022 19.4667 159.062 18.96C158.102 18.4267 156.915 18.16 155.502 18.16C154.088 18.16 152.822 18.4933 151.702 19.16C150.582 19.8 149.688 20.72 149.022 21.92C148.382 23.0933 148.062 24.4933 148.062 26.12V26.44C148.062 28.0667 148.382 29.48 149.022 30.68C149.688 31.8533 150.582 32.7733 151.702 33.44C152.822 34.08 154.088 34.4 155.502 34.4C157.635 34.4 159.262 33.8533 160.382 32.76C161.502 31.64 162.195 30.28 162.462 28.68L164.822 29.16C164.582 30.4133 164.075 31.6133 163.302 32.76C162.555 33.88 161.528 34.8 160.222 35.52C158.942 36.2133 157.368 36.56 155.502 36.56ZM179.603 36.56C177.63 36.56 175.896 36.1467 174.403 35.32C172.936 34.4667 171.79 33.2933 170.963 31.8C170.163 30.28 169.763 28.52 169.763 26.52V26.04C169.763 24.04 170.163 22.2933 170.963 20.8C171.79 19.28 172.936 18.1067 174.403 17.28C175.896 16.4267 177.63 16 179.603 16C181.576 16 183.296 16.4267 184.763 17.28C186.256 18.1067 187.403 19.28 188.203 20.8C189.03 22.2933 189.443 24.04 189.443 26.04V26.52C189.443 28.52 189.03 30.28 188.203 31.8C187.403 33.2933 186.256 34.4667 184.763 35.32C183.296 36.1467 181.576 36.56 179.603 36.56ZM179.603 34.4C181.896 34.4 183.71 33.68 185.043 32.24C186.376 30.7733 187.043 28.84 187.043 26.44V26.12C187.043 23.72 186.376 21.8 185.043 20.36C183.71 18.8933 181.896 18.16 179.603 18.16C177.336 18.16 175.523 18.8933 174.163 20.36C172.83 21.8 172.163 23.72 172.163 26.12V26.44C172.163 28.84 172.83 30.7733 174.163 32.24C175.523 33.68 177.336 34.4 179.603 34.4ZM195.528 36V16.56H197.848V19.12H198.328C198.728 18.4 199.368 17.7333 200.248 17.12C201.128 16.48 202.381 16.16 204.008 16.16C205.581 16.16 206.848 16.52 207.808 17.24C208.794 17.96 209.501 18.8267 209.928 19.84H210.408C210.861 18.8267 211.568 17.96 212.528 17.24C213.488 16.52 214.834 16.16 216.568 16.16C217.901 16.16 219.061 16.44 220.048 17C221.034 17.5333 221.808 18.2933 222.368 19.28C222.928 20.24 223.208 21.3733 223.208 22.68V36H220.808V22.92C220.808 21.5333 220.381 20.4267 219.528 19.6C218.701 18.7467 217.528 18.32 216.008 18.32C214.461 18.32 213.168 18.8267 212.128 19.84C211.088 20.8267 210.568 22.28 210.568 24.2V36H208.168V22.92C208.168 21.5333 207.741 20.4267 206.888 19.6C206.061 18.7467 204.888 18.32 203.368 18.32C201.821 18.32 200.528 18.8267 199.488 19.84C198.448 20.8267 197.928 22.28 197.928 24.2V36H195.528ZM238.98 36.56C236.98 36.56 235.233 36.1467 233.74 35.32C232.273 34.4667 231.127 33.28 230.3 31.76C229.473 30.24 229.06 28.4933 229.06 26.52V26.04C229.06 24.04 229.473 22.2933 230.3 20.8C231.127 19.28 232.26 18.1067 233.7 17.28C235.167 16.4267 236.833 16 238.7 16C240.513 16 242.113 16.3867 243.5 17.16C244.913 17.9067 246.02 19 246.82 20.44C247.62 21.8533 248.02 23.5467 248.02 25.52V26.8H231.46C231.54 29.2267 232.273 31.1067 233.66 32.44C235.073 33.7467 236.847 34.4 238.98 34.4C240.793 34.4 242.193 33.9867 243.18 33.16C244.193 32.3333 244.967 31.32 245.5 30.12L247.66 31.08C247.26 31.96 246.7 32.8267 245.98 33.68C245.287 34.5067 244.38 35.2 243.26 35.76C242.14 36.2933 240.713 36.56 238.98 36.56ZM231.5 24.72H245.58C245.473 22.6133 244.793 21 243.54 19.88C242.287 18.7333 240.673 18.16 238.7 18.16C236.753 18.16 235.14 18.7333 233.86 19.88C232.58 21 231.793 22.6133 231.5 24.72ZM271.279 36C270.239 36 269.452 35.7333 268.919 35.2C268.412 34.6667 268.159 33.92 268.159 32.96V18.72H261.919V16.56H268.159V9.28H270.559V16.56H277.359V18.72H270.559V32.64C270.559 33.44 270.959 33.84 271.759 33.84H276.319V36H271.279ZM290.892 36.56C288.919 36.56 287.186 36.1467 285.692 35.32C284.226 34.4667 283.079 33.2933 282.252 31.8C281.452 30.28 281.052 28.52 281.052 26.52V26.04C281.052 24.04 281.452 22.2933 282.252 20.8C283.079 19.28 284.226 18.1067 285.692 17.28C287.186 16.4267 288.919 16 290.892 16C292.866 16 294.586 16.4267 296.052 17.28C297.546 18.1067 298.692 19.28 299.492 20.8C300.319 22.2933 300.732 24.04 300.732 26.04V26.52C300.732 28.52 300.319 30.28 299.492 31.8C298.692 33.2933 297.546 34.4667 296.052 35.32C294.586 36.1467 292.866 36.56 290.892 36.56ZM290.892 34.4C293.186 34.4 294.999 33.68 296.332 32.24C297.666 30.7733 298.332 28.84 298.332 26.44V26.12C298.332 23.72 297.666 21.8 296.332 20.36C294.999 18.8933 293.186 18.16 290.892 18.16C288.626 18.16 286.812 18.8933 285.452 20.36C284.119 21.8 283.452 23.72 283.452 26.12V26.44C283.452 28.84 284.119 30.7733 285.452 32.24C286.812 33.68 288.626 34.4 290.892 34.4ZM317.129 36V16.56H319.449V19.12H319.929C320.329 18.4 320.969 17.7333 321.849 17.12C322.729 16.48 323.983 16.16 325.609 16.16C327.183 16.16 328.449 16.52 329.409 17.24C330.396 17.96 331.103 18.8267 331.529 19.84H332.009C332.463 18.8267 333.169 17.96 334.129 17.24C335.089 16.52 336.436 16.16 338.169 16.16C339.503 16.16 340.663 16.44 341.649 17C342.636 17.5333 343.409 18.2933 343.969 19.28C344.529 20.24 344.809 21.3733 344.809 22.68V36H342.409V22.92C342.409 21.5333 341.983 20.4267 341.129 19.6C340.303 18.7467 339.129 18.32 337.609 18.32C336.063 18.32 334.769 18.8267 333.729 19.84C332.689 20.8267 332.169 22.28 332.169 24.2V36H329.769V22.92C329.769 21.5333 329.343 20.4267 328.489 19.6C327.663 18.7467 326.489 18.32 324.969 18.32C323.423 18.32 322.129 18.8267 321.089 19.84C320.049 20.8267 319.529 22.28 319.529 24.2V36H317.129ZM353.749 44V41.84H365.109C365.909 41.84 366.309 41.44 366.309 40.64V32.64H365.829C365.509 33.28 365.056 33.8933 364.469 34.48C363.909 35.04 363.162 35.5067 362.229 35.88C361.322 36.2267 360.176 36.4 358.789 36.4C357.402 36.4 356.109 36.1067 354.909 35.52C353.736 34.9333 352.789 34.0533 352.069 32.88C351.376 31.7067 351.029 30.2267 351.029 28.44V16.56H353.429V28.28C353.429 30.3867 353.962 31.9067 355.029 32.84C356.096 33.7733 357.522 34.24 359.309 34.24C361.309 34.24 362.976 33.5867 364.309 32.28C365.642 30.9733 366.309 28.9867 366.309 26.32V16.56H368.709V40.96C368.709 41.92 368.442 42.6667 367.909 43.2C367.402 43.7333 366.629 44 365.589 44H353.749ZM80.5106 97.672C78.2066 97.672 76.1106 97.16 74.2226 96.136C72.3666 95.08 70.8786 93.56 69.7586 91.576C68.6706 89.56 68.1266 87.112 68.1266 84.232V76.168C68.1266 71.848 69.3426 68.536 71.7746 66.232C74.2066 63.896 77.5026 62.728 81.6626 62.728C85.7906 62.728 88.9746 63.832 91.2146 66.04C93.4866 68.216 94.6226 71.176 94.6226 74.92V75.112H88.3826V74.728C88.3826 73.544 88.1266 72.472 87.6146 71.512C87.1346 70.552 86.3986 69.8 85.4066 69.256C84.4146 68.68 83.1666 68.392 81.6626 68.392C79.4226 68.392 77.6626 69.08 76.3826 70.456C75.1026 71.832 74.4626 73.704 74.4626 76.072V84.328C74.4626 86.664 75.1026 88.552 76.3826 89.992C77.6626 91.4 79.4546 92.104 81.7586 92.104C84.0626 92.104 85.7426 91.496 86.7986 90.28C87.8546 89.064 88.3826 87.528 88.3826 85.672V85.192H80.4146V79.816H94.6226V97H88.7666V93.784H87.9026C87.6786 94.328 87.3106 94.904 86.7986 95.512C86.3186 96.12 85.5826 96.632 84.5906 97.048C83.5986 97.464 82.2386 97.672 80.5106 97.672ZM100.868 97V73.192H106.916V97H100.868ZM103.892 70.408C102.804 70.408 101.876 70.056 101.108 69.352C100.372 68.648 100.004 67.72 100.004 66.568C100.004 65.416 100.372 64.488 101.108 63.784C101.876 63.08 102.804 62.728 103.892 62.728C105.012 62.728 105.94 63.08 106.676 63.784C107.412 64.488 107.78 65.416 107.78 66.568C107.78 67.72 107.412 68.648 106.676 69.352C105.94 70.056 105.012 70.408 103.892 70.408ZM122.738 97C121.17 97 119.89 96.52 118.898 95.56C117.938 94.568 117.458 93.256 117.458 91.624V78.184H111.506V73.192H117.458V65.8H123.506V73.192H130.034V78.184H123.506V90.568C123.506 91.528 123.954 92.008 124.85 92.008H129.458V97H122.738ZM135.508 97V63.4H141.556V76.12H142.42C142.676 75.608 143.076 75.096 143.62 74.584C144.164 74.072 144.884 73.656 145.78 73.336C146.708 72.984 147.876 72.808 149.284 72.808C151.14 72.808 152.756 73.24 154.132 74.104C155.54 74.936 156.628 76.104 157.396 77.608C158.164 79.08 158.548 80.808 158.548 82.792V97H152.5V83.272C152.5 81.48 152.052 80.136 151.156 79.24C150.292 78.344 149.044 77.896 147.412 77.896C145.556 77.896 144.116 78.52 143.092 79.768C142.068 80.984 141.556 82.696 141.556 84.904V97H135.508ZM173.784 97.384C171.928 97.384 170.296 96.968 168.888 96.136C167.512 95.272 166.44 94.088 165.672 92.584C164.904 91.08 164.52 89.352 164.52 87.4V73.192H170.568V86.92C170.568 88.712 171 90.056 171.864 90.952C172.76 91.848 174.024 92.296 175.656 92.296C177.512 92.296 178.952 91.688 179.976 90.472C181 89.224 181.512 87.496 181.512 85.288V73.192H187.56V97H181.608V93.88H180.744C180.36 94.68 179.64 95.464 178.584 96.232C177.528 97 175.928 97.384 173.784 97.384ZM208.594 97.672C206.45 97.672 204.802 97.304 203.65 96.568C202.498 95.832 201.65 95.016 201.106 94.12H200.242V97H194.29V63.4H200.338V75.928H201.202C201.554 75.352 202.018 74.808 202.594 74.296C203.202 73.784 203.986 73.368 204.946 73.048C205.938 72.696 207.154 72.52 208.594 72.52C210.514 72.52 212.29 73 213.922 73.96C215.554 74.888 216.866 76.264 217.858 78.088C218.85 79.912 219.346 82.12 219.346 84.712V85.48C219.346 88.072 218.85 90.28 217.858 92.104C216.866 93.928 215.554 95.32 213.922 96.28C212.29 97.208 210.514 97.672 208.594 97.672ZM206.77 92.392C208.626 92.392 210.178 91.8 211.426 90.616C212.674 89.4 213.298 87.64 213.298 85.336V84.856C213.298 82.552 212.674 80.808 211.426 79.624C210.21 78.408 208.658 77.8 206.77 77.8C204.914 77.8 203.362 78.408 202.114 79.624C200.866 80.808 200.242 82.552 200.242 84.856V85.336C200.242 87.64 200.866 89.4 202.114 90.616C203.362 91.8 204.914 92.392 206.77 92.392ZM236.895 97V63.4H250.719C252.831 63.4 254.687 63.832 256.287 64.696C257.919 65.528 259.183 66.712 260.079 68.248C261.007 69.784 261.471 71.608 261.471 73.72V74.392C261.471 76.472 260.991 78.296 260.031 79.864C259.103 81.4 257.823 82.6 256.191 83.464C254.591 84.296 252.767 84.712 250.719 84.712H243.231V97H236.895ZM243.231 78.952H250.095C251.599 78.952 252.815 78.536 253.743 77.704C254.671 76.872 255.135 75.736 255.135 74.296V73.816C255.135 72.376 254.671 71.24 253.743 70.408C252.815 69.576 251.599 69.16 250.095 69.16H243.231V78.952ZM266.055 97V73.192H272.007V75.88H272.871C273.223 74.92 273.799 74.216 274.599 73.768C275.431 73.32 276.391 73.096 277.479 73.096H280.359V78.472H277.383C275.847 78.472 274.583 78.888 273.591 79.72C272.599 80.52 272.103 81.768 272.103 83.464V97H266.055ZM295.571 97.672C293.203 97.672 291.075 97.192 289.187 96.232C287.299 95.272 285.811 93.88 284.723 92.056C283.635 90.232 283.091 88.04 283.091 85.48V84.712C283.091 82.152 283.635 79.96 284.723 78.136C285.811 76.312 287.299 74.92 289.187 73.96C291.075 73 293.203 72.52 295.571 72.52C297.939 72.52 300.067 73 301.955 73.96C303.843 74.92 305.331 76.312 306.419 78.136C307.507 79.96 308.051 82.152 308.051 84.712V85.48C308.051 88.04 307.507 90.232 306.419 92.056C305.331 93.88 303.843 95.272 301.955 96.232C300.067 97.192 297.939 97.672 295.571 97.672ZM295.571 92.296C297.427 92.296 298.963 91.704 300.179 90.52C301.395 89.304 302.003 87.576 302.003 85.336V84.856C302.003 82.616 301.395 80.904 300.179 79.72C298.995 78.504 297.459 77.896 295.571 77.896C293.715 77.896 292.179 78.504 290.963 79.72C289.747 80.904 289.139 82.616 289.139 84.856V85.336C289.139 87.576 289.747 89.304 290.963 90.52C292.179 91.704 293.715 92.296 295.571 92.296ZM316.773 97V78.184H310.725V73.192H316.773V68.776C316.773 67.144 317.253 65.848 318.213 64.888C319.205 63.896 320.485 63.4 322.053 63.4H327.813V68.392H324.165C323.269 68.392 322.821 68.872 322.821 69.832V73.192H332.421V78.184H322.821V97H316.773ZM332.421 97V73.192H338.469V97H332.421ZM335.445 70.6C334.357 70.6 333.429 70.248 332.661 69.544C331.925 68.84 331.557 67.912 331.557 66.76C331.557 65.608 331.925 64.68 332.661 63.976C333.429 63.272 334.357 62.92 335.445 62.92C336.565 62.92 337.493 63.272 338.229 63.976C338.965 64.68 339.333 65.608 339.333 66.76C339.333 67.912 338.965 68.84 338.229 69.544C337.493 70.248 336.565 70.6 335.445 70.6ZM345.18 97V63.4H351.228V97H345.18ZM368.778 97.672C366.41 97.672 364.314 97.176 362.49 96.184C360.698 95.16 359.29 93.736 358.266 91.912C357.274 90.056 356.778 87.88 356.778 85.384V84.808C356.778 82.312 357.274 80.152 358.266 78.328C359.258 76.472 360.65 75.048 362.442 74.056C364.234 73.032 366.314 72.52 368.682 72.52C371.018 72.52 373.05 73.048 374.778 74.104C376.506 75.128 377.85 76.568 378.81 78.424C379.77 80.248 380.25 82.376 380.25 84.808V86.872H362.922C362.986 88.504 363.594 89.832 364.746 90.856C365.898 91.88 367.306 92.392 368.97 92.392C370.666 92.392 371.914 92.024 372.714 91.288C373.514 90.552 374.122 89.736 374.538 88.84L379.482 91.432C379.034 92.264 378.378 93.176 377.514 94.168C376.682 95.128 375.562 95.96 374.154 96.664C372.746 97.336 370.954 97.672 368.778 97.672ZM362.97 82.36H374.106C373.978 80.984 373.418 79.88 372.426 79.048C371.466 78.216 370.202 77.8 368.634 77.8C367.002 77.8 365.706 78.216 364.746 79.048C363.786 79.88 363.194 80.984 362.97 82.36Z" fill="black"/>
<rect x="4" y="115" width="440" height="288" rx="40" fill="#212121"/>
<path d="M315 115H403V403H315V263V115Z" fill="#D782FF"/>
<path d="M326 155C326 132.909 343.909 115 366 115H405C427.091 115 445 132.909 445 155V363C445 385.091 427.091 403 405 403H366C343.909 403 326 385.091 326 363V263V155Z" fill="#D782FF"/>
<path d="M53.25 238.375C52.5938 238.375 51.9688 238.234 51.375 237.953C49.8438 237.141 49.0781 235.688 49.0781 233.594C49.0781 232.312 49.3125 231.031 49.7812 229.75C50.2188 228.438 50.7188 227.359 51.2812 226.516C53.5625 223.016 56.7344 221.016 60.7969 220.516L61.6406 220.469C63.3594 220.469 65.0625 220.875 66.75 221.688C68.4688 222.469 69.5 223.828 69.8438 225.766V226C69.8438 226.625 69.5 226.984 68.8125 227.078C68.4688 227.078 68.2031 226.969 68.0156 226.75C67.8594 226.531 67.7188 226.25 67.5938 225.906C67.4062 225.25 66.9688 224.609 66.2812 223.984C65.625 223.359 64.375 222.969 62.5312 222.812H62.0156C58.6094 222.812 55.7656 224.344 53.4844 227.406C52.0781 229.656 51.375 231.672 51.375 233.453C51.375 234.047 51.4688 234.562 51.6562 235C52 235.656 52.5 235.984 53.1562 235.984C53.9375 235.984 54.8125 235.672 55.7812 235.047C56.7812 234.422 57.6875 233.75 58.5 233.031C59.3125 232.312 59.875 231.766 60.1875 231.391C60.5312 230.984 60.7969 230.688 60.9844 230.5C61.2031 230.312 61.3906 230.188 61.5469 230.125C61.7344 230.062 61.9531 230.031 62.2031 230.031C62.6406 230.031 62.9531 230.156 63.1406 230.406C63.3281 230.625 63.4844 231.031 63.6094 231.625C63.8906 233.375 64.7188 234.25 66.0938 234.25H66.4688C68.7812 234.25 71.6562 232.938 75.0938 230.312C75.7812 229.781 76.3281 229.516 76.7344 229.516C77.2969 229.516 77.5781 229.797 77.5781 230.359C77.5781 230.734 77.3594 231.203 76.9219 231.766C76.4219 232.266 75.6406 232.875 74.5781 233.594C71.6719 235.531 68.9688 236.5 66.4688 236.5C65.625 236.5 64.9062 236.375 64.3125 236.125C63.0938 235.5 62.2656 234.531 61.8281 233.219C60.6094 234.344 59.6719 235.172 59.0156 235.703C56.8281 237.484 54.9062 238.375 53.25 238.375ZM74.5781 238C74.2969 238 74.0625 237.891 73.875 237.672C73.6562 237.453 73.5469 237.094 73.5469 236.594C73.5469 236.219 73.625 235.766 73.7812 235.234C74.5938 232.922 75.7031 229.922 77.1094 226.234C77.4844 225.328 77.7812 224.688 78 224.312C78.25 223.938 78.4844 223.719 78.7031 223.656L78.9375 223.609C79.1562 223.609 79.3594 223.688 79.5469 223.844C79.7344 223.969 79.8438 224.109 79.875 224.266C79.9375 224.422 79.9844 224.547 80.0156 224.641C80.0156 224.953 79.6562 225.984 78.9375 227.734C78.625 228.547 78.4688 229 78.4688 229.094V229.141L78.75 228.953C79.6562 228.172 80.5 227.781 81.2812 227.781C81.9062 227.781 82.5312 228.078 83.1562 228.672C83.3125 228.828 83.4531 229 83.5781 229.188C83.7031 229.375 83.8438 229.656 84 230.031C84.1875 230.375 84.4219 230.859 84.7031 231.484C85.2656 232.547 85.9375 233.078 86.7188 233.078C87.4688 233.078 88.2344 232.812 89.0156 232.281C89.7969 231.719 90.5 231.172 91.125 230.641C91.75 230.109 92.2812 229.844 92.7188 229.844C93.2188 229.844 93.4844 230.109 93.5156 230.641C93.5156 230.922 93.3906 231.234 93.1406 231.578C92.2656 232.641 91.2344 233.516 90.0469 234.203C88.8906 234.891 87.75 235.234 86.625 235.234C84.7188 235.234 83.2969 234.172 82.3594 232.047C82.0469 231.359 81.8125 230.891 81.6562 230.641C81.5 230.359 81.3438 230.219 81.1875 230.219C81.0938 230.219 80.9844 230.25 80.8594 230.312C80.1719 230.719 79.3438 231.594 78.375 232.938C77.4375 234.25 76.75 235.469 76.3125 236.594C76.1562 237.031 75.9219 237.375 75.6094 237.625C75.2656 237.875 74.9219 238 74.5781 238ZM99.6562 214.938C99.7188 214.875 99.875 214.531 100.125 213.906L100.406 213.25C100.656 212.625 100.922 211.906 101.203 211.094C101.516 210.25 101.781 209.5 102 208.844C102.219 208.188 102.328 207.812 102.328 207.719C102.266 207.719 101.531 209.656 100.125 213.531C99.8438 214.312 99.6875 214.781 99.6562 214.938ZM97.125 230.172C97.25 230.172 97.7812 229.719 98.7188 228.812C100 227.625 100.906 226.531 101.438 225.531L101.812 224.922L101.25 225.297C100.969 225.516 100.531 225.953 99.9375 226.609C99.375 227.266 98.8125 227.938 98.25 228.625C97.7188 229.281 97.3438 229.781 97.125 230.125V230.172ZM88.4062 245.734C88.125 245.734 87.8594 245.641 87.6094 245.453C87.3594 245.234 87.2344 244.953 87.2344 244.609C87.2344 244.172 87.4531 243.234 87.8906 241.797C88.5156 239.672 89.7656 235.844 91.6406 230.312C92.3594 228.25 94.3125 222.812 97.5 214C99.5938 208.219 101.031 204.312 101.812 202.281C102.594 200.25 103.172 199 103.547 198.531C103.922 198.031 104.344 197.781 104.812 197.781C105.312 197.781 105.734 198.078 106.078 198.672C106.203 198.953 106.266 199.375 106.266 199.938C106.266 202.094 105.484 205.594 103.922 210.438C101.453 217.594 98.625 223.297 95.4375 227.547C95.1562 227.922 94.9062 228.328 94.6875 228.766C94.4688 229.203 94.3594 229.5 94.3594 229.656V229.75C94.4531 229.75 94.9062 229.203 95.7188 228.109C96.5625 226.984 97.5938 225.812 98.8125 224.594C100.031 223.344 100.969 222.5 101.625 222.062C102.156 221.781 102.625 221.641 103.031 221.641C103.938 221.641 104.422 222.281 104.484 223.562C104.484 225.812 102.625 228.547 98.9062 231.766C97.6875 232.828 97.0781 233.422 97.0781 233.547C97.0781 233.609 97.125 233.656 97.2188 233.688C97.9688 234.031 98.9062 234.203 100.031 234.203C101.281 234.203 102.578 234 103.922 233.594C104.547 233.406 105.297 233.109 106.172 232.703C108.234 231.766 109.547 231.031 110.109 230.5C110.703 229.969 111.141 229.703 111.422 229.703C112.141 229.828 112.5 230.188 112.5 230.781C112.469 231.438 111.812 232.188 110.531 233.031C109.375 233.781 108.016 234.484 106.453 235.141C104.266 236.016 102.297 236.453 100.547 236.453C98.2969 236.453 96.4062 235.906 94.875 234.812C94.5312 234.531 94.3281 234.391 94.2656 234.391C94.0469 234.641 93.7344 235.172 93.3281 235.984C92.3281 237.797 91.5156 239.516 90.8906 241.141L90.5156 242.078C90.0156 243.234 89.7656 244 89.7656 244.375C89.7656 244.719 89.625 245.031 89.3438 245.312C89.0312 245.594 88.7188 245.734 88.4062 245.734ZM115.172 223.188C114.453 223.188 114.094 222.734 114.094 221.828C114.094 221.484 114.141 221.156 114.234 220.844C114.359 220.5 114.531 220.234 114.75 220.047C115 219.828 115.297 219.719 115.641 219.719C115.953 219.719 116.188 219.844 116.344 220.094C116.531 220.312 116.625 220.734 116.625 221.359C116.625 222.578 116.141 223.188 115.172 223.188ZM116.578 239.125H116.109C114.547 238.969 113.266 238.312 112.266 237.156C111.266 235.969 110.734 234.453 110.672 232.609C110.672 231.016 111.094 229.359 111.938 227.641C112.781 225.672 113.547 224.688 114.234 224.688C114.453 224.688 114.672 224.812 114.891 225.062C115.141 225.281 115.266 225.578 115.266 225.953L115.219 226.75C115.125 228.156 114.781 229.016 114.188 229.328C113.969 229.422 113.797 229.562 113.672 229.75C113.547 229.938 113.438 230.219 113.344 230.594C113.156 231.531 113.062 232.344 113.062 233.031C113.062 235.5 114.188 236.734 116.438 236.734C118.406 236.734 120.812 235.906 123.656 234.25C125.812 233 127.641 231.719 129.141 230.406C129.641 230.031 130.078 229.844 130.453 229.844C130.828 229.844 131.078 229.984 131.203 230.266C131.297 230.422 131.344 230.609 131.344 230.828C131.344 231.234 131.062 231.703 130.5 232.234C128.094 234.297 125.594 235.969 123 237.25C120.406 238.5 118.266 239.125 116.578 239.125ZM139.5 208.328C139.625 208.328 139.969 207.734 140.531 206.547C142.406 202.484 143.797 199.047 144.703 196.234C145.859 192.797 146.438 190.422 146.438 189.109C146.031 189.734 144.812 192.875 142.781 198.531L140.062 206.219C139.656 207.438 139.453 208.109 139.453 208.234C139.453 208.297 139.469 208.328 139.5 208.328ZM121.312 261.156C121.188 261.156 121.031 261.094 120.844 260.969C120.406 260.75 120.188 260.391 120.188 259.891C120.188 259.547 120.281 259.109 120.469 258.578C120.719 257.922 121.484 255.484 122.766 251.266C126.984 237.703 130.766 226.047 134.109 216.297L135.984 210.719C135.984 210.656 135.062 210.625 133.219 210.625C125.438 210.625 115.344 210.844 102.938 211.281C100.656 211.344 98.9844 211.375 97.9219 211.375C96.8281 211.375 96.1406 211.312 95.8594 211.188C95.3906 211.031 95.1562 210.688 95.1562 210.156C95.1562 209.875 95.2344 209.641 95.3906 209.453C95.7344 209.141 96.3594 208.875 97.2656 208.656C98.1406 208.438 99.0156 208.328 99.8906 208.328C100.297 208.328 100.609 208.344 100.828 208.375C101.016 208.406 101.156 208.453 101.25 208.516C101.344 208.547 101.438 208.609 101.531 208.703C101.625 208.797 101.734 208.891 101.859 208.984C117.078 208.547 128.75 208.328 136.875 208.328L137.062 207.672C140.375 198.234 142.531 192.281 143.531 189.812C144.875 186.375 146.125 184.656 147.281 184.656C147.469 184.656 147.672 184.703 147.891 184.797C148.547 184.922 148.875 185.859 148.875 187.609C148.875 191.734 147.062 197.781 143.438 205.75C142.719 207.312 142.359 208.156 142.359 208.281C142.359 208.375 143.984 208.453 147.234 208.516C152.109 208.609 156.938 208.812 161.719 209.125C166.5 209.406 170.031 209.719 172.312 210.062C174.375 210.375 175.406 210.891 175.406 211.609C175.312 212.078 175.172 212.375 174.984 212.5C174.828 212.594 174.562 212.641 174.188 212.641C173.75 212.641 173.094 212.578 172.219 212.453C165.375 211.516 155.016 210.938 141.141 210.719C140.422 212.219 139.25 214.812 137.625 218.5C135.531 223.062 134.141 226 133.453 227.312C132.953 228.312 132.484 229.344 132.047 230.406C131.609 231.438 131.062 232.938 130.406 234.906C129.406 237.844 126.875 245.859 122.812 258.953L122.484 260.078C122.297 260.547 122.094 260.844 121.875 260.969C121.656 261.094 121.469 261.156 121.312 261.156ZM157.594 214.938C157.656 214.875 157.812 214.531 158.062 213.906L158.344 213.25C158.594 212.625 158.859 211.906 159.141 211.094C159.453 210.25 159.719 209.5 159.938 208.844C160.156 208.188 160.266 207.812 160.266 207.719C160.203 207.719 159.469 209.656 158.062 213.531C157.781 214.312 157.625 214.781 157.594 214.938ZM155.062 230.172C155.188 230.172 155.719 229.719 156.656 228.812C157.938 227.625 158.844 226.531 159.375 225.531L159.75 224.922L159.188 225.297C158.906 225.516 158.469 225.953 157.875 226.609C157.312 227.266 156.75 227.938 156.188 228.625C155.656 229.281 155.281 229.781 155.062 230.125V230.172ZM146.344 245.734C146.062 245.734 145.797 245.641 145.547 245.453C145.297 245.234 145.172 244.953 145.172 244.609C145.172 244.172 145.391 243.234 145.828 241.797C146.453 239.672 147.703 235.844 149.578 230.312C150.297 228.25 152.25 222.812 155.438 214C157.531 208.219 158.969 204.312 159.75 202.281C160.531 200.25 161.109 199 161.484 198.531C161.859 198.031 162.281 197.781 162.75 197.781C163.25 197.781 163.672 198.078 164.016 198.672C164.141 198.953 164.203 199.375 164.203 199.938C164.203 202.094 163.422 205.594 161.859 210.438C159.391 217.594 156.562 223.297 153.375 227.547C153.094 227.922 152.844 228.328 152.625 228.766C152.406 229.203 152.297 229.5 152.297 229.656V229.75C152.391 229.75 152.844 229.203 153.656 228.109C154.5 226.984 155.531 225.812 156.75 224.594C157.969 223.344 158.906 222.5 159.562 222.062C160.094 221.781 160.562 221.641 160.969 221.641C161.875 221.641 162.359 222.281 162.422 223.562C162.422 225.812 160.562 228.547 156.844 231.766C155.625 232.828 155.016 233.422 155.016 233.547C155.016 233.609 155.062 233.656 155.156 233.688C155.906 234.031 156.844 234.203 157.969 234.203C159.219 234.203 160.516 234 161.859 233.594C162.484 233.406 163.234 233.109 164.109 232.703C166.172 231.766 167.484 231.031 168.047 230.5C168.641 229.969 169.078 229.703 169.359 229.703C170.078 229.828 170.438 230.188 170.438 230.781C170.406 231.438 169.75 232.188 168.469 233.031C167.312 233.781 165.953 234.484 164.391 235.141C162.203 236.016 160.234 236.453 158.484 236.453C156.234 236.453 154.344 235.906 152.812 234.812C152.469 234.531 152.266 234.391 152.203 234.391C151.984 234.641 151.672 235.172 151.266 235.984C150.266 237.797 149.453 239.516 148.828 241.141L148.453 242.078C147.953 243.234 147.703 244 147.703 244.375C147.703 244.719 147.562 245.031 147.281 245.312C146.969 245.594 146.656 245.734 146.344 245.734ZM181.453 237.25C180.391 237.25 179.453 236.891 178.641 236.172C177.828 235.453 177.25 234.094 176.906 232.094L176.016 232.656C175.422 233.062 174.875 233.359 174.375 233.547C173.906 233.703 173.359 233.781 172.734 233.781C171.422 233.781 170.469 233.375 169.875 232.562C169.312 231.719 169.031 230.75 169.031 229.656C169.031 228.25 169.531 226.641 170.531 224.828C170.969 224.016 171.422 223.609 171.891 223.609C172.141 223.609 172.375 223.703 172.594 223.891C172.812 224.078 172.922 224.328 172.922 224.641C172.922 224.922 172.797 225.25 172.547 225.625C172.297 225.969 172.016 226.547 171.703 227.359C171.422 228.141 171.25 228.922 171.188 229.703C171.188 230.859 171.688 231.453 172.688 231.484C173.531 231.484 174.516 230.984 175.641 229.984C176.797 228.953 177.531 228.156 177.844 227.594C178.344 226.844 178.891 226.469 179.484 226.469C179.797 226.469 180.078 226.594 180.328 226.844C180.578 227.062 180.703 227.297 180.703 227.547C180.703 227.859 180.516 228.219 180.141 228.625C179.516 229.25 179.203 230.25 179.203 231.625C179.203 233.844 179.984 234.953 181.547 234.953C182.922 234.953 184.578 234.156 186.516 232.562C187.422 231.812 188.094 231.156 188.531 230.594C189 230 189.453 229.703 189.891 229.703C190.297 229.703 190.594 229.938 190.781 230.406C190.812 230.531 190.828 230.672 190.828 230.828C190.828 231.547 190.016 232.609 188.391 234.016C187.391 234.891 186.266 235.656 185.016 236.312C183.797 236.938 182.609 237.25 181.453 237.25ZM188.391 237.062C188.109 237.062 187.875 236.969 187.688 236.781C187.5 236.562 187.406 236.281 187.406 235.938C187.469 235.531 187.797 234.391 188.391 232.516C189.672 228.453 190.484 226 190.828 225.156C191.297 224.125 191.797 223.609 192.328 223.609C192.797 223.609 193.078 223.984 193.172 224.734C193.172 225.047 193.094 225.422 192.938 225.859C192.781 226.266 192.609 226.75 192.422 227.312C192.234 227.844 192.062 228.328 191.906 228.766C191.781 229.172 191.719 229.406 191.719 229.469C191.781 229.375 191.938 229.234 192.188 229.047C192.438 228.828 192.734 228.625 193.078 228.438C193.453 228.25 193.844 228.156 194.25 228.156C194.438 228.156 194.625 228.188 194.812 228.25C195.312 228.469 195.625 228.859 195.75 229.422C195.875 229.953 195.953 230.719 195.984 231.719L197.672 230.125C199.453 228.406 200.828 227.406 201.797 227.125L202.266 227.078C202.953 227.078 203.547 227.406 204.047 228.062C204.141 228.219 204.219 228.406 204.281 228.625C204.344 228.844 204.375 229.734 204.375 231.297V232.562C204.375 233.094 204.422 233.562 204.516 233.969C204.641 234.375 204.922 234.578 205.359 234.578C206.453 234.578 208.266 233.359 210.797 230.922C211.609 230.234 212.219 229.891 212.625 229.891C212.875 229.891 213.078 229.969 213.234 230.125C213.391 230.281 213.469 230.5 213.469 230.781C213.469 231.344 213 232.078 212.062 232.984C209.469 235.391 207.328 236.672 205.641 236.828H205.219C203.094 236.828 202.016 235.344 201.984 232.375L202.125 229.938L202.031 229.516C201.812 229.516 201.312 229.844 200.531 230.5C199.781 231.125 199 231.844 198.188 232.656C197.406 233.438 196.828 234.109 196.453 234.672C196.016 235.359 195.5 235.703 194.906 235.703C194 235.672 193.547 234.875 193.547 233.312L193.594 231.109C193.531 231.109 193.359 231.25 193.078 231.531C192.359 232.25 191.703 233.016 191.109 233.828C190.578 234.484 190.141 235.203 189.797 235.984C189.328 236.703 188.859 237.062 188.391 237.062ZM215.531 238.375C214.875 238.375 214.25 238.234 213.656 237.953C212.125 237.141 211.359 235.688 211.359 233.594C211.359 232.312 211.594 231.031 212.062 229.75C212.5 228.438 213 227.359 213.562 226.516C215.844 223.016 219.016 221.016 223.078 220.516L223.922 220.469C225.641 220.469 227.344 220.875 229.031 221.688C230.75 222.469 231.781 223.828 232.125 225.766V226C232.125 226.625 231.781 226.984 231.094 227.078C230.75 227.078 230.484 226.969 230.297 226.75C230.141 226.531 230 226.25 229.875 225.906C229.688 225.25 229.25 224.609 228.562 223.984C227.906 223.359 226.656 222.969 224.812 222.812H224.297C220.891 222.812 218.047 224.344 215.766 227.406C214.359 229.656 213.656 231.672 213.656 233.453C213.656 234.047 213.75 234.562 213.938 235C214.281 235.656 214.781 235.984 215.438 235.984C216.219 235.984 217.094 235.672 218.062 235.047C219.062 234.422 219.969 233.75 220.781 233.031C221.594 232.312 222.156 231.766 222.469 231.391C222.812 230.984 223.078 230.688 223.266 230.5C223.484 230.312 223.672 230.188 223.828 230.125C224.016 230.062 224.234 230.031 224.484 230.031C224.922 230.031 225.234 230.156 225.422 230.406C225.609 230.625 225.766 231.031 225.891 231.625C226.172 233.375 227 234.25 228.375 234.25H228.75C231.062 234.25 233.938 232.938 237.375 230.312C238.062 229.781 238.609 229.516 239.016 229.516C239.578 229.516 239.859 229.797 239.859 230.359C239.859 230.734 239.641 231.203 239.203 231.766C238.703 232.266 237.922 232.875 236.859 233.594C233.953 235.531 231.25 236.5 228.75 236.5C227.906 236.5 227.188 236.375 226.594 236.125C225.375 235.5 224.547 234.531 224.109 233.219C222.891 234.344 221.953 235.172 221.297 235.703C219.109 237.484 217.188 238.375 215.531 238.375ZM240 228.109C240.094 228.109 240.203 228.031 240.328 227.875C241.234 226.688 242.344 224.875 243.656 222.438C245 219.969 245.953 217.969 246.516 216.438C246.891 215.281 247.078 214.328 247.078 213.578C247.078 213.391 247.047 213.297 246.984 213.297C246.859 213.297 246.547 213.484 246.047 213.859C244.359 215.141 242.922 216.844 241.734 218.969C240.172 221.688 239.391 224.047 239.391 226.047C239.391 226.672 239.453 227.172 239.578 227.547C239.734 227.922 239.875 228.109 240 228.109ZM247.875 240.859C246.25 240.859 245.078 240.25 244.359 239.031C243.891 238.281 243.5 237.422 243.188 236.453C242.781 234.922 242 233.578 240.844 232.422C239.5 231.328 238.531 230.297 237.938 229.328C237.312 228.328 237 227.234 237 226.047C237 225.422 237.078 224.75 237.234 224.031C237.797 221.406 238.891 218.875 240.516 216.438C242.141 214 243.875 212.281 245.719 211.281C246.312 210.969 246.828 210.812 247.266 210.812C247.703 210.812 248.078 210.969 248.391 211.281C248.734 211.562 248.969 211.875 249.094 212.219C249.219 212.531 249.281 212.984 249.281 213.578V214.328C249.25 215.266 249.047 216.25 248.672 217.281C246.859 221.938 244.453 226.156 241.453 229.938L242.156 230.5C243.562 231.562 244.484 232.906 244.922 234.531C245.422 236.062 245.891 237.125 246.328 237.719C246.766 238.281 247.312 238.562 247.969 238.562C249.406 238.438 250.984 237.672 252.703 236.266C254.422 234.828 255.953 233.406 257.297 232L258.984 230.406C259.453 230.062 259.844 229.891 260.156 229.891C260.375 229.891 260.547 229.938 260.672 230.031C260.922 230.25 261.047 230.484 261.047 230.734C261.047 231.578 259.422 233.516 256.172 236.547C253.078 239.422 250.312 240.859 247.875 240.859Z" fill="white"/>
<path d="M267.069 178.173C267.6 176.199 270.4 176.199 270.931 178.173L272.943 185.645C273.129 186.334 273.666 186.871 274.355 187.057L281.827 189.069C283.801 189.6 283.801 192.4 281.827 192.931L274.355 194.943C273.666 195.129 273.129 195.666 272.943 196.355L270.931 203.827C270.4 205.801 267.6 205.801 267.069 203.827L265.057 196.355C264.871 195.666 264.334 195.129 263.645 194.943L256.173 192.931C254.199 192.4 254.199 189.6 256.173 189.069L263.645 187.057C264.334 186.871 264.871 186.334 265.057 185.645L267.069 178.173Z" fill="#FFC700"/>
<path d="M282.034 198.586C282.3 197.6 283.7 197.6 283.966 198.586L284.972 202.323C285.064 202.667 285.333 202.936 285.677 203.028L289.414 204.034C290.4 204.3 290.4 205.7 289.414 205.966L285.677 206.972C285.333 207.064 285.064 207.333 284.972 207.677L283.966 211.414C283.7 212.4 282.3 212.4 282.034 211.414L281.028 207.677C280.936 207.333 280.667 207.064 280.323 206.972L276.586 205.966C275.6 205.7 275.6 204.3 276.586 204.034L280.323 203.028C280.667 202.936 280.936 202.667 281.028 202.323L282.034 198.586Z" fill="#66FFBF"/>
<path d="M363.103 190.182C361.994 190.182 361.114 189.87 360.464 189.246C359.814 188.613 359.489 187.703 359.489 186.516V184.384C359.489 183.197 359.814 182.291 360.464 181.667C361.114 181.034 361.994 180.718 363.103 180.718C364.195 180.718 365.036 181.021 365.625 181.628C366.223 182.235 366.522 183.062 366.522 184.111V184.189H365.131V184.072C365.131 183.457 364.962 182.954 364.624 182.564C364.295 182.174 363.788 181.979 363.103 181.979C362.41 181.979 361.868 182.191 361.478 182.616C361.088 183.032 360.893 183.613 360.893 184.358V186.542C360.893 187.279 361.088 187.859 361.478 188.284C361.868 188.709 362.41 188.921 363.103 188.921C363.788 188.921 364.295 188.726 364.624 188.336C364.962 187.937 365.131 187.435 365.131 186.828V186.607H366.522V186.789C366.522 187.838 366.223 188.665 365.625 189.272C365.036 189.879 364.195 190.182 363.103 190.182ZM370.82 192.6L366.998 180.9H368.35L372.172 192.6H370.82ZM376.078 190.182C374.969 190.182 374.089 189.87 373.439 189.246C372.789 188.613 372.464 187.703 372.464 186.516V184.384C372.464 183.197 372.789 182.291 373.439 181.667C374.089 181.034 374.969 180.718 376.078 180.718C377.17 180.718 378.011 181.021 378.6 181.628C379.198 182.235 379.497 183.062 379.497 184.111V184.189H378.106V184.072C378.106 183.457 377.937 182.954 377.599 182.564C377.27 182.174 376.763 181.979 376.078 181.979C375.385 181.979 374.843 182.191 374.453 182.616C374.063 183.032 373.868 183.613 373.868 184.358V186.542C373.868 187.279 374.063 187.859 374.453 188.284C374.843 188.709 375.385 188.921 376.078 188.921C376.763 188.921 377.27 188.726 377.599 188.336C377.937 187.937 378.106 187.435 378.106 186.828V186.607H379.497V186.789C379.497 187.838 379.198 188.665 378.6 189.272C378.011 189.879 377.17 190.182 376.078 190.182ZM383.496 188.167V186.061H381.416V184.839H383.496V182.733H384.77V184.839H386.85V186.061H384.77V188.167H383.496ZM391.557 188.167V186.061H389.477V184.839H391.557V182.733H392.831V184.839H394.911V186.061H392.831V188.167H391.557ZM366.46 212.182C365.55 212.182 364.826 211.931 364.289 211.428C363.751 210.917 363.483 210.197 363.483 209.27V208.49H364.887V209.27C364.887 209.755 365.017 210.145 365.277 210.44C365.545 210.726 365.931 210.869 366.434 210.869C366.919 210.869 367.279 210.726 367.513 210.44C367.747 210.154 367.864 209.764 367.864 209.27V204.174H366.278V202.9H370.282V204.174H369.268V209.27C369.268 210.215 369.021 210.938 368.527 211.441C368.041 211.935 367.352 212.182 366.46 212.182ZM373.418 212.182C372.959 212.182 372.547 212.104 372.183 211.948C371.828 211.792 371.542 211.562 371.325 211.259C371.117 210.956 371.013 210.587 371.013 210.154C371.013 209.712 371.117 209.348 371.325 209.062C371.542 208.767 371.832 208.546 372.196 208.399C372.569 208.252 372.989 208.178 373.457 208.178H375.407V207.762C375.407 207.389 375.295 207.09 375.069 206.865C374.844 206.64 374.497 206.527 374.029 206.527C373.57 206.527 373.219 206.635 372.976 206.852C372.734 207.069 372.573 207.35 372.495 207.697L371.247 207.294C371.351 206.947 371.516 206.635 371.741 206.358C371.975 206.072 372.283 205.842 372.664 205.669C373.046 205.496 373.505 205.409 374.042 205.409C374.874 205.409 375.529 205.621 376.005 206.046C376.482 206.471 376.72 207.073 376.72 207.853V210.492C376.72 210.752 376.842 210.882 377.084 210.882H377.63V212H376.629C376.326 212 376.079 211.922 375.888 211.766C375.698 211.61 375.602 211.398 375.602 211.129V211.09H375.407C375.338 211.22 375.234 211.372 375.095 211.545C374.957 211.718 374.753 211.87 374.484 212C374.216 212.121 373.86 212.182 373.418 212.182ZM373.613 211.077C374.151 211.077 374.584 210.925 374.913 210.622C375.243 210.31 375.407 209.885 375.407 209.348V209.218H373.535C373.18 209.218 372.894 209.296 372.677 209.452C372.461 209.599 372.352 209.82 372.352 210.115C372.352 210.41 372.465 210.644 372.69 210.817C372.916 210.99 373.223 211.077 373.613 211.077ZM380.059 212L377.901 205.591H379.318L381.021 211.012H381.229L382.932 205.591H384.349L382.191 212H380.059ZM387.459 212.182C387 212.182 386.588 212.104 386.224 211.948C385.869 211.792 385.583 211.562 385.366 211.259C385.158 210.956 385.054 210.587 385.054 210.154C385.054 209.712 385.158 209.348 385.366 209.062C385.583 208.767 385.873 208.546 386.237 208.399C386.61 208.252 387.03 208.178 387.498 208.178H389.448V207.762C389.448 207.389 389.336 207.09 389.11 206.865C388.885 206.64 388.538 206.527 388.07 206.527C387.611 206.527 387.26 206.635 387.017 206.852C386.775 207.069 386.614 207.35 386.536 207.697L385.288 207.294C385.392 206.947 385.557 206.635 385.782 206.358C386.016 206.072 386.324 205.842 386.705 205.669C387.087 205.496 387.546 205.409 388.083 205.409C388.915 205.409 389.57 205.621 390.046 206.046C390.523 206.471 390.761 207.073 390.761 207.853V210.492C390.761 210.752 390.883 210.882 391.125 210.882H391.671V212H390.67C390.367 212 390.12 211.922 389.929 211.766C389.739 211.61 389.643 211.398 389.643 211.129V211.09H389.448C389.379 211.22 389.275 211.372 389.136 211.545C388.998 211.718 388.794 211.87 388.525 212C388.257 212.121 387.901 212.182 387.459 212.182ZM387.654 211.077C388.192 211.077 388.625 210.925 388.954 210.622C389.284 210.31 389.448 209.885 389.448 209.348V209.218H387.576C387.221 209.218 386.935 209.296 386.718 209.452C386.502 209.599 386.393 209.82 386.393 210.115C386.393 210.41 386.506 210.644 386.731 210.817C386.957 210.99 387.264 211.077 387.654 211.077ZM355.566 234V224.9H359.18C359.734 224.9 360.228 225.013 360.662 225.238C361.104 225.455 361.446 225.767 361.689 226.174C361.94 226.573 362.066 227.054 362.066 227.617V227.786C362.066 228.349 361.936 228.835 361.676 229.242C361.424 229.649 361.082 229.961 360.649 230.178C360.215 230.395 359.726 230.503 359.18 230.503H356.97V234H355.566ZM356.97 229.229H359.037C359.531 229.229 359.925 229.099 360.22 228.839C360.514 228.579 360.662 228.224 360.662 227.773V227.643C360.662 227.184 360.514 226.824 360.22 226.564C359.925 226.304 359.531 226.174 359.037 226.174H356.97V229.229ZM364.179 236.6V235.43H367.754C367.996 235.43 368.118 235.3 368.118 235.04V233.064H367.91C367.832 233.237 367.71 233.406 367.546 233.571C367.39 233.727 367.177 233.857 366.909 233.961C366.64 234.065 366.302 234.117 365.895 234.117C365.409 234.117 364.976 234.009 364.595 233.792C364.213 233.575 363.914 233.268 363.698 232.869C363.481 232.47 363.373 231.998 363.373 231.452V227.591H364.712V231.348C364.712 231.903 364.85 232.314 365.128 232.583C365.405 232.843 365.791 232.973 366.285 232.973C366.831 232.973 367.268 232.791 367.598 232.427C367.936 232.063 368.105 231.534 368.105 230.841V227.591H369.444V235.313C369.444 235.703 369.327 236.015 369.093 236.249C368.867 236.483 368.555 236.6 368.157 236.6H364.179ZM373.828 234C373.438 234 373.126 233.883 372.892 233.649C372.667 233.415 372.554 233.103 372.554 232.713V228.722H370.786V227.591H372.554V225.472H373.893V227.591H375.804V228.722H373.893V232.479C373.893 232.739 374.014 232.869 374.257 232.869H375.596V234H373.828ZM377.377 234V224.9H378.716V228.501H378.924C379.011 228.336 379.132 228.176 379.288 228.02C379.453 227.864 379.665 227.738 379.925 227.643C380.194 227.539 380.532 227.487 380.939 227.487C381.424 227.487 381.853 227.595 382.226 227.812C382.607 228.029 382.906 228.336 383.123 228.735C383.34 229.125 383.448 229.597 383.448 230.152V234H382.109V230.256C382.109 229.701 381.97 229.294 381.693 229.034C381.416 228.765 381.034 228.631 380.549 228.631C379.994 228.631 379.548 228.813 379.21 229.177C378.881 229.541 378.716 230.07 378.716 230.763V234H377.377ZM388.378 234.182C387.737 234.182 387.165 234.052 386.662 233.792C386.168 233.523 385.778 233.142 385.492 232.648C385.206 232.154 385.063 231.569 385.063 230.893V230.698C385.063 230.022 385.206 229.441 385.492 228.956C385.778 228.462 386.168 228.081 386.662 227.812C387.165 227.543 387.737 227.409 388.378 227.409C389.02 227.409 389.592 227.543 390.094 227.812C390.597 228.081 390.991 228.462 391.277 228.956C391.563 229.441 391.706 230.022 391.706 230.698V230.893C391.706 231.569 391.563 232.154 391.277 232.648C390.991 233.142 390.597 233.523 390.094 233.792C389.592 234.052 389.02 234.182 388.378 234.182ZM388.378 232.986C388.968 232.986 389.444 232.8 389.808 232.427C390.181 232.046 390.367 231.521 390.367 230.854V230.737C390.367 230.07 390.185 229.55 389.821 229.177C389.457 228.796 388.976 228.605 388.378 228.605C387.798 228.605 387.321 228.796 386.948 229.177C386.584 229.55 386.402 230.07 386.402 230.737V230.854C386.402 231.521 386.584 232.046 386.948 232.427C387.321 232.8 387.798 232.986 388.378 232.986ZM393.373 234V227.591H394.686V228.553H394.894C395.016 228.293 395.232 228.05 395.544 227.825C395.856 227.6 396.32 227.487 396.935 227.487C397.421 227.487 397.85 227.595 398.222 227.812C398.604 228.029 398.903 228.336 399.119 228.735C399.336 229.125 399.444 229.597 399.444 230.152V234H398.105V230.256C398.105 229.701 397.967 229.294 397.689 229.034C397.412 228.765 397.031 228.631 396.545 228.631C395.991 228.631 395.544 228.813 395.206 229.177C394.877 229.541 394.712 230.07 394.712 230.763V234H393.373ZM361.145 256V246.9H362.549V250.8H366.371V246.9H367.775V256H366.371V252.074H362.549V256H361.145ZM371.848 256V248.174H369.053V246.9H376.047V248.174H373.252V256H371.848ZM377.319 256V246.9H379.958L381.947 255.064H382.155L384.144 246.9H386.783V256H385.418V247.888H385.21L383.234 256H380.868L378.892 247.888H378.684V256H377.319ZM388.681 256V246.9H390.085V254.726H394.466V256H388.681ZM369.73 278.182C368.621 278.182 367.741 277.87 367.091 277.246C366.441 276.613 366.116 275.703 366.116 274.516V272.384C366.116 271.197 366.441 270.291 367.091 269.667C367.741 269.034 368.621 268.718 369.73 268.718C370.822 268.718 371.663 269.021 372.252 269.628C372.85 270.235 373.149 271.062 373.149 272.111V272.189H371.758V272.072C371.758 271.457 371.589 270.954 371.251 270.564C370.922 270.174 370.415 269.979 369.73 269.979C369.037 269.979 368.495 270.191 368.105 270.616C367.715 271.032 367.52 271.613 367.52 272.358V274.542C367.52 275.279 367.715 275.859 368.105 276.284C368.495 276.709 369.037 276.921 369.73 276.921C370.415 276.921 370.922 276.726 371.251 276.336C371.589 275.937 371.758 275.435 371.758 274.828V274.607H373.149V274.789C373.149 275.838 372.85 276.665 372.252 277.272C371.663 277.879 370.822 278.182 369.73 278.182ZM377.798 278.182C377.113 278.182 376.507 278.061 375.978 277.818C375.449 277.575 375.033 277.22 374.73 276.752C374.435 276.275 374.288 275.699 374.288 275.023V274.698H375.679V275.023C375.679 275.664 375.87 276.145 376.251 276.466C376.641 276.787 377.157 276.947 377.798 276.947C378.448 276.947 378.938 276.813 379.267 276.544C379.596 276.267 379.761 275.911 379.761 275.478C379.761 275.192 379.683 274.958 379.527 274.776C379.371 274.594 379.15 274.451 378.864 274.347C378.578 274.234 378.236 274.13 377.837 274.035L377.356 273.918C376.775 273.779 376.268 273.61 375.835 273.411C375.41 273.203 375.081 272.93 374.847 272.592C374.613 272.254 374.496 271.821 374.496 271.292C374.496 270.755 374.626 270.295 374.886 269.914C375.155 269.533 375.523 269.238 375.991 269.03C376.459 268.822 377.009 268.718 377.642 268.718C378.275 268.718 378.838 268.826 379.332 269.043C379.835 269.26 380.229 269.58 380.515 270.005C380.801 270.43 380.944 270.963 380.944 271.604V272.072H379.553V271.604C379.553 271.214 379.471 270.898 379.306 270.655C379.15 270.412 378.929 270.235 378.643 270.122C378.357 270.009 378.023 269.953 377.642 269.953C377.087 269.953 376.654 270.07 376.342 270.304C376.039 270.529 375.887 270.846 375.887 271.253C375.887 271.53 375.952 271.76 376.082 271.942C376.221 272.115 376.42 272.258 376.68 272.371C376.94 272.484 377.265 272.583 377.655 272.67L378.136 272.787C378.725 272.917 379.245 273.086 379.696 273.294C380.147 273.493 380.502 273.766 380.762 274.113C381.022 274.46 381.152 274.906 381.152 275.452C381.152 275.998 381.013 276.475 380.736 276.882C380.467 277.289 380.082 277.61 379.579 277.844C379.076 278.069 378.483 278.182 377.798 278.182ZM385.72 278.182C385.035 278.182 384.428 278.061 383.9 277.818C383.371 277.575 382.955 277.22 382.652 276.752C382.357 276.275 382.21 275.699 382.21 275.023V274.698H383.601V275.023C383.601 275.664 383.791 276.145 384.173 276.466C384.563 276.787 385.078 276.947 385.72 276.947C386.37 276.947 386.859 276.813 387.189 276.544C387.518 276.267 387.683 275.911 387.683 275.478C387.683 275.192 387.605 274.958 387.449 274.776C387.293 274.594 387.072 274.451 386.786 274.347C386.5 274.234 386.157 274.13 385.759 274.035L385.278 273.918C384.697 273.779 384.19 273.61 383.757 273.411C383.332 273.203 383.003 272.93 382.769 272.592C382.535 272.254 382.418 271.821 382.418 271.292C382.418 270.755 382.548 270.295 382.808 269.914C383.076 269.533 383.445 269.238 383.913 269.03C384.381 268.822 384.931 268.718 385.564 268.718C386.196 268.718 386.76 268.826 387.254 269.043C387.756 269.26 388.151 269.58 388.437 270.005C388.723 270.43 388.866 270.963 388.866 271.604V272.072H387.475V271.604C387.475 271.214 387.392 270.898 387.228 270.655C387.072 270.412 386.851 270.235 386.565 270.122C386.279 270.009 385.945 269.953 385.564 269.953C385.009 269.953 384.576 270.07 384.264 270.304C383.96 270.529 383.809 270.846 383.809 271.253C383.809 271.53 383.874 271.76 384.004 271.942C384.142 272.115 384.342 272.258 384.602 272.371C384.862 272.484 385.187 272.583 385.577 272.67L386.058 272.787C386.647 272.917 387.167 273.086 387.618 273.294C388.068 273.493 388.424 273.766 388.684 274.113C388.944 274.46 389.074 274.906 389.074 275.452C389.074 275.998 388.935 276.475 388.658 276.882C388.389 277.289 388.003 277.61 387.501 277.844C386.998 278.069 386.404 278.182 385.72 278.182ZM347.455 295.182C346.545 295.182 345.821 294.931 345.284 294.428C344.746 293.917 344.478 293.197 344.478 292.27V291.49H345.882V292.27C345.882 292.755 346.012 293.145 346.272 293.44C346.54 293.726 346.926 293.869 347.429 293.869C347.914 293.869 348.274 293.726 348.508 293.44C348.742 293.154 348.859 292.764 348.859 292.27V287.174H347.273V285.9H351.277V287.174H350.263V292.27C350.263 293.215 350.016 293.938 349.522 294.441C349.036 294.935 348.347 295.182 347.455 295.182ZM354.414 295.182C353.954 295.182 353.543 295.104 353.179 294.948C352.823 294.792 352.537 294.562 352.321 294.259C352.113 293.956 352.009 293.587 352.009 293.154C352.009 292.712 352.113 292.348 352.321 292.062C352.537 291.767 352.828 291.546 353.192 291.399C353.564 291.252 353.985 291.178 354.453 291.178H356.403V290.762C356.403 290.389 356.29 290.09 356.065 289.865C355.839 289.64 355.493 289.527 355.025 289.527C354.565 289.527 354.214 289.635 353.972 289.852C353.729 290.069 353.569 290.35 353.491 290.697L352.243 290.294C352.347 289.947 352.511 289.635 352.737 289.358C352.971 289.072 353.278 288.842 353.66 288.669C354.041 288.496 354.5 288.409 355.038 288.409C355.87 288.409 356.524 288.621 357.001 289.046C357.477 289.471 357.716 290.073 357.716 290.853V293.492C357.716 293.752 357.837 293.882 358.08 293.882H358.626V295H357.625C357.321 295 357.074 294.922 356.884 294.766C356.693 294.61 356.598 294.398 356.598 294.129V294.09H356.403C356.333 294.22 356.229 294.372 356.091 294.545C355.952 294.718 355.748 294.87 355.48 295C355.211 295.121 354.856 295.182 354.414 295.182ZM354.609 294.077C355.146 294.077 355.579 293.925 355.909 293.622C356.238 293.31 356.403 292.885 356.403 292.348V292.218H354.531C354.175 292.218 353.889 292.296 353.673 292.452C353.456 292.599 353.348 292.82 353.348 293.115C353.348 293.41 353.46 293.644 353.686 293.817C353.911 293.99 354.219 294.077 354.609 294.077ZM361.054 295L358.896 288.591H360.313L362.016 294.012H362.224L363.927 288.591H365.344L363.186 295H361.054ZM368.455 295.182C367.995 295.182 367.584 295.104 367.22 294.948C366.864 294.792 366.578 294.562 366.362 294.259C366.154 293.956 366.05 293.587 366.05 293.154C366.05 292.712 366.154 292.348 366.362 292.062C366.578 291.767 366.869 291.546 367.233 291.399C367.605 291.252 368.026 291.178 368.494 291.178H370.444V290.762C370.444 290.389 370.331 290.09 370.106 289.865C369.88 289.64 369.534 289.527 369.066 289.527C368.606 289.527 368.255 289.635 368.013 289.852C367.77 290.069 367.61 290.35 367.532 290.697L366.284 290.294C366.388 289.947 366.552 289.635 366.778 289.358C367.012 289.072 367.319 288.842 367.701 288.669C368.082 288.496 368.541 288.409 369.079 288.409C369.911 288.409 370.565 288.621 371.042 289.046C371.518 289.471 371.757 290.073 371.757 290.853V293.492C371.757 293.752 371.878 293.882 372.121 293.882H372.667V295H371.666C371.362 295 371.115 294.922 370.925 294.766C370.734 294.61 370.639 294.398 370.639 294.129V294.09H370.444C370.374 294.22 370.27 294.372 370.132 294.545C369.993 294.718 369.789 294.87 369.521 295C369.252 295.121 368.897 295.182 368.455 295.182ZM368.65 294.077C369.187 294.077 369.62 293.925 369.95 293.622C370.279 293.31 370.444 292.885 370.444 292.348V292.218H368.572C368.216 292.218 367.93 292.296 367.714 292.452C367.497 292.599 367.389 292.82 367.389 293.115C367.389 293.41 367.501 293.644 367.727 293.817C367.952 293.99 368.26 294.077 368.65 294.077ZM377.023 295.182C376.339 295.182 375.732 295.061 375.203 294.818C374.675 294.575 374.259 294.22 373.955 293.752C373.661 293.275 373.513 292.699 373.513 292.023V291.698H374.904V292.023C374.904 292.664 375.095 293.145 375.476 293.466C375.866 293.787 376.382 293.947 377.023 293.947C377.673 293.947 378.163 293.813 378.492 293.544C378.822 293.267 378.986 292.911 378.986 292.478C378.986 292.192 378.908 291.958 378.752 291.776C378.596 291.594 378.375 291.451 378.089 291.347C377.803 291.234 377.461 291.13 377.062 291.035L376.581 290.918C376.001 290.779 375.494 290.61 375.06 290.411C374.636 290.203 374.306 289.93 374.072 289.592C373.838 289.254 373.721 288.821 373.721 288.292C373.721 287.755 373.851 287.295 374.111 286.914C374.38 286.533 374.748 286.238 375.216 286.03C375.684 285.822 376.235 285.718 376.867 285.718C377.5 285.718 378.063 285.826 378.557 286.043C379.06 286.26 379.454 286.58 379.74 287.005C380.026 287.43 380.169 287.963 380.169 288.604V289.072H378.778V288.604C378.778 288.214 378.696 287.898 378.531 287.655C378.375 287.412 378.154 287.235 377.868 287.122C377.582 287.009 377.249 286.953 376.867 286.953C376.313 286.953 375.879 287.07 375.567 287.304C375.264 287.529 375.112 287.846 375.112 288.253C375.112 288.53 375.177 288.76 375.307 288.942C375.446 289.115 375.645 289.258 375.905 289.371C376.165 289.484 376.49 289.583 376.88 289.67L377.361 289.787C377.951 289.917 378.471 290.086 378.921 290.294C379.372 290.493 379.727 290.766 379.987 291.113C380.247 291.46 380.377 291.906 380.377 292.452C380.377 292.998 380.239 293.475 379.961 293.882C379.693 294.289 379.307 294.61 378.804 294.844C378.302 295.069 377.708 295.182 377.023 295.182ZM384.867 295.182C384.252 295.182 383.693 295.052 383.19 294.792C382.696 294.532 382.302 294.155 382.007 293.661C381.721 293.167 381.578 292.573 381.578 291.88V291.711C381.578 291.018 381.721 290.428 382.007 289.943C382.302 289.449 382.696 289.072 383.19 288.812C383.693 288.543 384.252 288.409 384.867 288.409C385.483 288.409 386.007 288.522 386.44 288.747C386.874 288.972 387.22 289.271 387.48 289.644C387.749 290.017 387.922 290.428 388 290.879L386.7 291.152C386.657 290.866 386.566 290.606 386.427 290.372C386.289 290.138 386.094 289.952 385.842 289.813C385.591 289.674 385.275 289.605 384.893 289.605C384.521 289.605 384.183 289.692 383.879 289.865C383.585 290.03 383.351 290.272 383.177 290.593C383.004 290.905 382.917 291.286 382.917 291.737V291.854C382.917 292.305 383.004 292.69 383.177 293.011C383.351 293.332 383.585 293.574 383.879 293.739C384.183 293.904 384.521 293.986 384.893 293.986C385.457 293.986 385.886 293.843 386.18 293.557C386.475 293.262 386.661 292.89 386.739 292.439L388.039 292.738C387.935 293.18 387.749 293.587 387.48 293.96C387.22 294.333 386.874 294.632 386.44 294.857C386.007 295.074 385.483 295.182 384.867 295.182ZM389.584 295V288.591H390.897V289.345H391.105C391.209 289.076 391.373 288.881 391.599 288.76C391.833 288.63 392.119 288.565 392.457 288.565H393.224V289.774H392.405C391.971 289.774 391.616 289.895 391.339 290.138C391.061 290.372 390.923 290.736 390.923 291.23V295H389.584ZM394.611 295V288.591H395.95V295H394.611ZM395.287 287.72C395.027 287.72 394.806 287.638 394.624 287.473C394.451 287.3 394.364 287.079 394.364 286.81C394.364 286.541 394.451 286.325 394.624 286.16C394.806 285.987 395.027 285.9 395.287 285.9C395.556 285.9 395.777 285.987 395.95 286.16C396.123 286.325 396.21 286.541 396.21 286.81C396.21 287.079 396.123 287.3 395.95 287.473C395.777 287.638 395.556 287.72 395.287 287.72ZM397.937 297.6V288.591H399.25V289.514H399.458C399.623 289.228 399.87 288.972 400.199 288.747C400.537 288.522 401.018 288.409 401.642 288.409C402.18 288.409 402.669 288.539 403.111 288.799C403.562 289.059 403.922 289.436 404.19 289.93C404.468 290.415 404.606 291.005 404.606 291.698V291.893C404.606 292.586 404.472 293.18 404.203 293.674C403.935 294.159 403.575 294.532 403.124 294.792C402.674 295.052 402.18 295.182 401.642 295.182C401.226 295.182 400.875 295.13 400.589 295.026C400.303 294.922 400.074 294.792 399.9 294.636C399.727 294.471 399.588 294.302 399.484 294.129H399.276V297.6H397.937ZM401.252 294.012C401.842 294.012 402.323 293.826 402.695 293.453C403.068 293.08 403.254 292.547 403.254 291.854V291.737C403.254 291.052 403.064 290.524 402.682 290.151C402.31 289.778 401.833 289.592 401.252 289.592C400.68 289.592 400.204 289.778 399.822 290.151C399.45 290.524 399.263 291.052 399.263 291.737V291.854C399.263 292.547 399.45 293.08 399.822 293.453C400.204 293.826 400.68 294.012 401.252 294.012ZM408.429 295C408.039 295 407.727 294.883 407.493 294.649C407.268 294.415 407.155 294.103 407.155 293.713V289.722H405.387V288.591H407.155V286.472H408.494V288.591H410.405V289.722H408.494V293.479C408.494 293.739 408.615 293.869 408.858 293.869H410.197V295H408.429ZM346.284 317V315.752H347.506V309.148H346.284V307.9H350.899C351.445 307.9 351.922 307.995 352.329 308.186C352.736 308.368 353.053 308.632 353.278 308.979C353.512 309.317 353.629 309.72 353.629 310.188V310.318C353.629 310.734 353.551 311.076 353.395 311.345C353.239 311.614 353.048 311.822 352.823 311.969C352.606 312.116 352.398 312.22 352.199 312.281V312.489C352.398 312.541 352.611 312.645 352.836 312.801C353.07 312.948 353.265 313.156 353.421 313.425C353.586 313.694 353.668 314.045 353.668 314.478V314.608C353.668 315.111 353.551 315.54 353.317 315.895C353.083 316.25 352.758 316.523 352.342 316.714C351.935 316.905 351.462 317 350.925 317H346.284ZM348.923 315.726H350.756C351.224 315.726 351.592 315.613 351.861 315.388C352.13 315.163 352.264 314.851 352.264 314.452V314.335C352.264 313.936 352.13 313.624 351.861 313.399C351.601 313.174 351.233 313.061 350.756 313.061H348.923V315.726ZM348.923 311.774H350.756C351.198 311.774 351.553 311.666 351.822 311.449C352.091 311.224 352.225 310.92 352.225 310.539V310.409C352.225 310.028 352.091 309.729 351.822 309.512C351.562 309.287 351.207 309.174 350.756 309.174H348.923V311.774ZM358.284 317.182C357.643 317.182 357.071 317.052 356.568 316.792C356.074 316.523 355.684 316.142 355.398 315.648C355.112 315.154 354.969 314.569 354.969 313.893V313.698C354.969 313.022 355.112 312.441 355.398 311.956C355.684 311.462 356.074 311.081 356.568 310.812C357.071 310.543 357.643 310.409 358.284 310.409C358.925 310.409 359.497 310.543 360 310.812C360.503 311.081 360.897 311.462 361.183 311.956C361.469 312.441 361.612 313.022 361.612 313.698V313.893C361.612 314.569 361.469 315.154 361.183 315.648C360.897 316.142 360.503 316.523 360 316.792C359.497 317.052 358.925 317.182 358.284 317.182ZM358.284 315.986C358.873 315.986 359.35 315.8 359.714 315.427C360.087 315.046 360.273 314.521 360.273 313.854V313.737C360.273 313.07 360.091 312.55 359.727 312.177C359.363 311.796 358.882 311.605 358.284 311.605C357.703 311.605 357.227 311.796 356.854 312.177C356.49 312.55 356.308 313.07 356.308 313.737V313.854C356.308 314.521 356.49 315.046 356.854 315.427C357.227 315.8 357.703 315.986 358.284 315.986ZM366.282 317.182C365.641 317.182 365.069 317.052 364.566 316.792C364.072 316.523 363.682 316.142 363.396 315.648C363.11 315.154 362.967 314.569 362.967 313.893V313.698C362.967 313.022 363.11 312.441 363.396 311.956C363.682 311.462 364.072 311.081 364.566 310.812C365.069 310.543 365.641 310.409 366.282 310.409C366.923 310.409 367.495 310.543 367.998 310.812C368.501 311.081 368.895 311.462 369.181 311.956C369.467 312.441 369.61 313.022 369.61 313.698V313.893C369.61 314.569 369.467 315.154 369.181 315.648C368.895 316.142 368.501 316.523 367.998 316.792C367.495 317.052 366.923 317.182 366.282 317.182ZM366.282 315.986C366.871 315.986 367.348 315.8 367.712 315.427C368.085 315.046 368.271 314.521 368.271 313.854V313.737C368.271 313.07 368.089 312.55 367.725 312.177C367.361 311.796 366.88 311.605 366.282 311.605C365.701 311.605 365.225 311.796 364.852 312.177C364.488 312.55 364.306 313.07 364.306 313.737V313.854C364.306 314.521 364.488 315.046 364.852 315.427C365.225 315.8 365.701 315.986 366.282 315.986ZM373.441 317C373.051 317 372.739 316.883 372.505 316.649C372.28 316.415 372.167 316.103 372.167 315.713V311.722H370.399V310.591H372.167V308.472H373.506V310.591H375.417V311.722H373.506V315.479C373.506 315.739 373.627 315.869 373.87 315.869H375.209V317H373.441ZM379.616 317.182C378.801 317.182 378.125 317 377.588 316.636C377.051 316.272 376.721 315.722 376.6 314.985L377.848 314.686C377.917 315.041 378.034 315.323 378.199 315.531C378.364 315.739 378.567 315.886 378.81 315.973C379.061 316.06 379.33 316.103 379.616 316.103C380.041 316.103 380.366 316.021 380.591 315.856C380.825 315.691 380.942 315.479 380.942 315.219C380.942 314.959 380.834 314.768 380.617 314.647C380.4 314.526 380.08 314.426 379.655 314.348L379.213 314.27C378.78 314.192 378.385 314.079 378.03 313.932C377.675 313.785 377.393 313.581 377.185 313.321C376.977 313.061 376.873 312.727 376.873 312.32C376.873 311.713 377.098 311.245 377.549 310.916C378 310.578 378.598 310.409 379.343 310.409C380.062 310.409 380.652 310.574 381.111 310.903C381.579 311.224 381.882 311.661 382.021 312.216L380.773 312.567C380.695 312.177 380.53 311.904 380.279 311.748C380.028 311.583 379.716 311.501 379.343 311.501C378.979 311.501 378.693 311.57 378.485 311.709C378.277 311.839 378.173 312.025 378.173 312.268C378.173 312.528 378.273 312.719 378.472 312.84C378.68 312.961 378.957 313.052 379.304 313.113L379.759 313.191C380.218 313.269 380.639 313.377 381.02 313.516C381.401 313.655 381.7 313.854 381.917 314.114C382.142 314.374 382.255 314.721 382.255 315.154C382.255 315.795 382.017 316.294 381.54 316.649C381.063 317.004 380.422 317.182 379.616 317.182ZM386.085 317C385.695 317 385.383 316.883 385.149 316.649C384.924 316.415 384.811 316.103 384.811 315.713V311.722H383.043V310.591H384.811V308.472H386.15V310.591H388.061V311.722H386.15V315.479C386.15 315.739 386.272 315.869 386.514 315.869H387.853V317H386.085ZM389.634 317V310.591H390.947V311.345H391.155C391.259 311.076 391.424 310.881 391.649 310.76C391.883 310.63 392.169 310.565 392.507 310.565H393.274V311.774H392.455C392.022 311.774 391.667 311.895 391.389 312.138C391.112 312.372 390.973 312.736 390.973 313.23V317H389.634ZM396.473 317.182C396.014 317.182 395.602 317.104 395.238 316.948C394.883 316.792 394.597 316.562 394.38 316.259C394.172 315.956 394.068 315.587 394.068 315.154C394.068 314.712 394.172 314.348 394.38 314.062C394.597 313.767 394.887 313.546 395.251 313.399C395.624 313.252 396.044 313.178 396.512 313.178H398.462V312.762C398.462 312.389 398.349 312.09 398.124 311.865C397.899 311.64 397.552 311.527 397.084 311.527C396.625 311.527 396.274 311.635 396.031 311.852C395.788 312.069 395.628 312.35 395.55 312.697L394.302 312.294C394.406 311.947 394.571 311.635 394.796 311.358C395.03 311.072 395.338 310.842 395.719 310.669C396.1 310.496 396.56 310.409 397.097 310.409C397.929 310.409 398.583 310.621 399.06 311.046C399.537 311.471 399.775 312.073 399.775 312.853V315.492C399.775 315.752 399.896 315.882 400.139 315.882H400.685V317H399.684C399.381 317 399.134 316.922 398.943 316.766C398.752 316.61 398.657 316.398 398.657 316.129V316.09H398.462C398.393 316.22 398.289 316.372 398.15 316.545C398.011 316.718 397.808 316.87 397.539 317C397.27 317.121 396.915 317.182 396.473 317.182ZM396.668 316.077C397.205 316.077 397.639 315.925 397.968 315.622C398.297 315.31 398.462 314.885 398.462 314.348V314.218H396.59C396.235 314.218 395.949 314.296 395.732 314.452C395.515 314.599 395.407 314.82 395.407 315.115C395.407 315.41 395.52 315.644 395.745 315.817C395.97 315.99 396.278 316.077 396.668 316.077ZM401.987 319.6V310.591H403.3V311.514H403.508C403.673 311.228 403.92 310.972 404.249 310.747C404.587 310.522 405.068 310.409 405.692 310.409C406.229 310.409 406.719 310.539 407.161 310.799C407.612 311.059 407.971 311.436 408.24 311.93C408.517 312.415 408.656 313.005 408.656 313.698V313.893C408.656 314.586 408.522 315.18 408.253 315.674C407.984 316.159 407.625 316.532 407.174 316.792C406.723 317.052 406.229 317.182 405.692 317.182C405.276 317.182 404.925 317.13 404.639 317.026C404.353 316.922 404.123 316.792 403.95 316.636C403.777 316.471 403.638 316.302 403.534 316.129H403.326V319.6H401.987ZM405.302 316.012C405.891 316.012 406.372 315.826 406.745 315.453C407.118 315.08 407.304 314.547 407.304 313.854V313.737C407.304 313.052 407.113 312.524 406.732 312.151C406.359 311.778 405.883 311.592 405.302 311.592C404.73 311.592 404.253 311.778 403.872 312.151C403.499 312.524 403.313 313.052 403.313 313.737V313.854C403.313 314.547 403.499 315.08 403.872 315.453C404.253 315.826 404.73 316.012 405.302 316.012ZM356.905 339V329.9H359.544L361.533 338.064H361.741L363.73 329.9H366.369V339H365.004V330.888H364.796L362.82 339H360.454L358.478 330.888H358.27V339H356.905ZM369.047 341.6V340.43H372.622C372.865 340.43 372.986 340.3 372.986 340.04V338.064H372.778C372.7 338.237 372.579 338.406 372.414 338.571C372.258 338.727 372.046 338.857 371.777 338.961C371.509 339.065 371.171 339.117 370.763 339.117C370.278 339.117 369.845 339.009 369.463 338.792C369.082 338.575 368.783 338.268 368.566 337.869C368.35 337.47 368.241 336.998 368.241 336.452V332.591H369.58V336.348C369.58 336.903 369.719 337.314 369.996 337.583C370.274 337.843 370.659 337.973 371.153 337.973C371.699 337.973 372.137 337.791 372.466 337.427C372.804 337.063 372.973 336.534 372.973 335.841V332.591H374.312V340.313C374.312 340.703 374.195 341.015 373.961 341.249C373.736 341.483 373.424 341.6 373.025 341.6H369.047ZM379.347 339.182C378.662 339.182 378.055 339.061 377.527 338.818C376.998 338.575 376.582 338.22 376.279 337.752C375.984 337.275 375.837 336.699 375.837 336.023V335.698H377.228V336.023C377.228 336.664 377.418 337.145 377.8 337.466C378.19 337.787 378.705 337.947 379.347 337.947C379.997 337.947 380.486 337.813 380.816 337.544C381.145 337.267 381.31 336.911 381.31 336.478C381.31 336.192 381.232 335.958 381.076 335.776C380.92 335.594 380.699 335.451 380.413 335.347C380.127 335.234 379.784 335.13 379.386 335.035L378.905 334.918C378.324 334.779 377.817 334.61 377.384 334.411C376.959 334.203 376.63 333.93 376.396 333.592C376.162 333.254 376.045 332.821 376.045 332.292C376.045 331.755 376.175 331.295 376.435 330.914C376.703 330.533 377.072 330.238 377.54 330.03C378.008 329.822 378.558 329.718 379.191 329.718C379.823 329.718 380.387 329.826 380.881 330.043C381.383 330.26 381.778 330.58 382.064 331.005C382.35 331.43 382.493 331.963 382.493 332.604V333.072H381.102V332.604C381.102 332.214 381.019 331.898 380.855 331.655C380.699 331.412 380.478 331.235 380.192 331.122C379.906 331.009 379.572 330.953 379.191 330.953C378.636 330.953 378.203 331.07 377.891 331.304C377.587 331.529 377.436 331.846 377.436 332.253C377.436 332.53 377.501 332.76 377.631 332.942C377.769 333.115 377.969 333.258 378.229 333.371C378.489 333.484 378.814 333.583 379.204 333.67L379.685 333.787C380.274 333.917 380.794 334.086 381.245 334.294C381.695 334.493 382.051 334.766 382.311 335.113C382.571 335.46 382.701 335.906 382.701 336.452C382.701 336.998 382.562 337.475 382.285 337.882C382.016 338.289 381.63 338.61 381.128 338.844C380.625 339.069 380.031 339.182 379.347 339.182ZM387.594 339.182C386.476 339.182 385.587 338.87 384.929 338.246C384.27 337.613 383.941 336.703 383.941 335.516V333.384C383.941 332.197 384.27 331.291 384.929 330.667C385.587 330.034 386.476 329.718 387.594 329.718C388.712 329.718 389.6 330.034 390.259 330.667C390.926 331.291 391.26 332.197 391.26 333.384V335.516C391.26 336.703 390.926 337.613 390.259 338.246C389.6 338.87 388.712 339.182 387.594 339.182ZM387.594 337.921C388.313 337.921 388.868 337.713 389.258 337.297C389.648 336.872 389.843 336.296 389.843 335.568V333.332C389.843 332.604 389.648 332.032 389.258 331.616C388.868 331.191 388.313 330.979 387.594 330.979C386.892 330.979 386.341 331.191 385.943 331.616C385.544 332.032 385.345 332.604 385.345 333.332V335.568C385.345 336.296 385.544 336.872 385.943 337.297C386.341 337.713 386.892 337.921 387.594 337.921ZM388.153 341.223C387.78 341.223 387.477 341.106 387.243 340.872C387.017 340.647 386.905 340.339 386.905 339.949V339H388.283V339.715C388.283 339.975 388.404 340.105 388.647 340.105H389.453V341.223H388.153ZM392.922 339V329.9H394.326V337.726H398.707V339H392.922ZM359.812 361V351.9H365.428V353.174H361.216V355.8H365.09V357.074H361.216V361H359.812ZM366.834 361V354.591H368.173V361H366.834ZM367.51 353.72C367.25 353.72 367.029 353.638 366.847 353.473C366.673 353.3 366.587 353.079 366.587 352.81C366.587 352.541 366.673 352.325 366.847 352.16C367.029 351.987 367.25 351.9 367.51 351.9C367.778 351.9 367.999 351.987 368.173 352.16C368.346 352.325 368.433 352.541 368.433 352.81C368.433 353.079 368.346 353.3 368.173 353.473C367.999 353.638 367.778 353.72 367.51 353.72ZM369.848 357.828V357.633C369.848 356.957 369.982 356.381 370.251 355.904C370.528 355.427 370.892 355.059 371.343 354.799C371.794 354.539 372.288 354.409 372.825 354.409C373.449 354.409 373.926 354.526 374.255 354.76C374.593 354.994 374.84 355.245 374.996 355.514H375.204V354.591H376.504V362.313C376.504 362.703 376.387 363.015 376.153 363.249C375.928 363.483 375.616 363.6 375.217 363.6H370.901V362.43H374.801C375.052 362.43 375.178 362.3 375.178 362.04V359.999H374.97C374.875 360.155 374.74 360.315 374.567 360.48C374.394 360.645 374.164 360.779 373.878 360.883C373.601 360.987 373.25 361.039 372.825 361.039C372.288 361.039 371.789 360.913 371.33 360.662C370.879 360.402 370.52 360.034 370.251 359.557C369.982 359.072 369.848 358.495 369.848 357.828ZM373.189 359.869C373.77 359.869 374.246 359.687 374.619 359.323C375 358.95 375.191 358.439 375.191 357.789V357.672C375.191 357.005 375.005 356.493 374.632 356.138C374.259 355.774 373.778 355.592 373.189 355.592C372.617 355.592 372.14 355.774 371.759 356.138C371.386 356.493 371.2 357.005 371.2 357.672V357.789C371.2 358.439 371.386 358.95 371.759 359.323C372.14 359.687 372.617 359.869 373.189 359.869ZM378.475 361V354.591H379.788V355.345H379.996C380.118 355.12 380.313 354.92 380.581 354.747C380.85 354.574 381.214 354.487 381.673 354.487C382.15 354.487 382.531 354.587 382.817 354.786C383.112 354.977 383.333 355.224 383.48 355.527H383.688C383.836 355.232 384.048 354.985 384.325 354.786C384.611 354.587 385.014 354.487 385.534 354.487C385.95 354.487 386.319 354.574 386.639 354.747C386.96 354.912 387.216 355.163 387.406 355.501C387.597 355.83 387.692 356.242 387.692 356.736V361H386.353V356.84C386.353 356.45 386.245 356.151 386.028 355.943C385.82 355.726 385.521 355.618 385.131 355.618C384.715 355.618 384.382 355.752 384.13 356.021C383.879 356.29 383.753 356.675 383.753 357.178V361H382.414V356.84C382.414 356.45 382.306 356.151 382.089 355.943C381.881 355.726 381.582 355.618 381.192 355.618C380.776 355.618 380.443 355.752 380.191 356.021C379.94 356.29 379.814 356.675 379.814 357.178V361H378.475ZM391.611 361.182C391.151 361.182 390.74 361.104 390.376 360.948C390.02 360.792 389.734 360.562 389.518 360.259C389.31 359.956 389.206 359.587 389.206 359.154C389.206 358.712 389.31 358.348 389.518 358.062C389.734 357.767 390.025 357.546 390.389 357.399C390.761 357.252 391.182 357.178 391.65 357.178H393.6V356.762C393.6 356.389 393.487 356.09 393.262 355.865C393.036 355.64 392.69 355.527 392.222 355.527C391.762 355.527 391.411 355.635 391.169 355.852C390.926 356.069 390.766 356.35 390.688 356.697L389.44 356.294C389.544 355.947 389.708 355.635 389.934 355.358C390.168 355.072 390.475 354.842 390.857 354.669C391.238 354.496 391.697 354.409 392.235 354.409C393.067 354.409 393.721 354.621 394.198 355.046C394.674 355.471 394.913 356.073 394.913 356.853V359.492C394.913 359.752 395.034 359.882 395.277 359.882H395.823V361H394.822C394.518 361 394.271 360.922 394.081 360.766C393.89 360.61 393.795 360.398 393.795 360.129V360.09H393.6C393.53 360.22 393.426 360.372 393.288 360.545C393.149 360.718 392.945 360.87 392.677 361C392.408 361.121 392.053 361.182 391.611 361.182ZM391.806 360.077C392.343 360.077 392.776 359.925 393.106 359.622C393.435 359.31 393.6 358.885 393.6 358.348V358.218H391.728C391.372 358.218 391.086 358.296 390.87 358.452C390.653 358.599 390.545 358.82 390.545 359.115C390.545 359.41 390.657 359.644 390.883 359.817C391.108 359.99 391.416 360.077 391.806 360.077Z" fill="black"/>
<path d="M350.815 159.28C349.735 159.28 348.781 159.087 347.955 158.7C347.128 158.313 346.481 157.76 346.015 157.04C345.548 156.32 345.315 155.453 345.315 154.44V153.88H347.915V154.44C347.915 155.28 348.175 155.913 348.695 156.34C349.215 156.753 349.921 156.96 350.815 156.96C351.721 156.96 352.395 156.78 352.835 156.42C353.288 156.06 353.515 155.6 353.515 155.04C353.515 154.653 353.401 154.34 353.175 154.1C352.961 153.86 352.641 153.667 352.215 153.52C351.801 153.36 351.295 153.213 350.695 153.08L350.235 152.98C349.275 152.767 348.448 152.5 347.755 152.18C347.075 151.847 346.548 151.413 346.175 150.88C345.815 150.347 345.635 149.653 345.635 148.8C345.635 147.947 345.835 147.22 346.235 146.62C346.648 146.007 347.221 145.54 347.955 145.22C348.701 144.887 349.575 144.72 350.575 144.72C351.575 144.72 352.461 144.893 353.235 145.24C354.021 145.573 354.635 146.08 355.075 146.76C355.528 147.427 355.755 148.267 355.755 149.28V149.88H353.155V149.28C353.155 148.747 353.048 148.32 352.835 148C352.635 147.667 352.341 147.427 351.955 147.28C351.568 147.12 351.108 147.04 350.575 147.04C349.775 147.04 349.181 147.193 348.795 147.5C348.421 147.793 348.235 148.2 348.235 148.72C348.235 149.067 348.321 149.36 348.495 149.6C348.681 149.84 348.955 150.04 349.315 150.2C349.675 150.36 350.135 150.5 350.695 150.62L351.155 150.72C352.155 150.933 353.021 151.207 353.755 151.54C354.501 151.873 355.081 152.313 355.495 152.86C355.908 153.407 356.115 154.107 356.115 154.96C356.115 155.813 355.895 156.567 355.455 157.22C355.028 157.86 354.415 158.367 353.615 158.74C352.828 159.1 351.895 159.28 350.815 159.28ZM358.084 159V145H360.724V150.56H361.084L365.624 145H369.004L363.164 151.9L369.204 159H365.724L361.084 153.32H360.724V159H358.084ZM370.603 159V145H373.243V159H370.603ZM375.877 159V145H378.517V156.6H384.917V159H375.877ZM386.716 159V145H389.356V156.6H395.756V159H386.716ZM402.416 159.28C401.336 159.28 400.383 159.087 399.556 158.7C398.73 158.313 398.083 157.76 397.616 157.04C397.15 156.32 396.916 155.453 396.916 154.44V153.88H399.516V154.44C399.516 155.28 399.776 155.913 400.296 156.34C400.816 156.753 401.523 156.96 402.416 156.96C403.323 156.96 403.996 156.78 404.436 156.42C404.89 156.06 405.116 155.6 405.116 155.04C405.116 154.653 405.003 154.34 404.776 154.1C404.563 153.86 404.243 153.667 403.816 153.52C403.403 153.36 402.896 153.213 402.296 153.08L401.836 152.98C400.876 152.767 400.05 152.5 399.356 152.18C398.676 151.847 398.15 151.413 397.776 150.88C397.416 150.347 397.236 149.653 397.236 148.8C397.236 147.947 397.436 147.22 397.836 146.62C398.25 146.007 398.823 145.54 399.556 145.22C400.303 144.887 401.176 144.72 402.176 144.72C403.176 144.72 404.063 144.893 404.836 145.24C405.623 145.573 406.236 146.08 406.676 146.76C407.13 147.427 407.356 148.267 407.356 149.28V149.88H404.756V149.28C404.756 148.747 404.65 148.32 404.436 148C404.236 147.667 403.943 147.427 403.556 147.28C403.17 147.12 402.71 147.04 402.176 147.04C401.376 147.04 400.783 147.193 400.396 147.5C400.023 147.793 399.836 148.2 399.836 148.72C399.836 149.067 399.923 149.36 400.096 149.6C400.283 149.84 400.556 150.04 400.916 150.2C401.276 150.36 401.736 150.5 402.296 150.62L402.756 150.72C403.756 150.933 404.623 151.207 405.356 151.54C406.103 151.873 406.683 152.313 407.096 152.86C407.51 153.407 407.716 154.107 407.716 154.96C407.716 155.813 407.496 156.567 407.056 157.22C406.63 157.86 406.016 158.367 405.216 158.74C404.43 159.1 403.496 159.28 402.416 159.28Z" fill="black"/>
<path d="M60.2757 288.28C58.6357 288.28 57.3224 287.8 56.3357 286.84C55.3624 285.867 54.8757 284.447 54.8757 282.58V279.42C54.8757 277.553 55.3624 276.14 56.3357 275.18C57.3224 274.207 58.6357 273.72 60.2757 273.72C61.9024 273.72 63.1424 274.18 63.9957 275.1C64.8624 276.007 65.2957 277.247 65.2957 278.82V278.92H64.0157V278.78C64.0157 277.633 63.709 276.7 63.0957 275.98C62.4957 275.247 61.5557 274.88 60.2757 274.88C58.9824 274.88 57.969 275.273 57.2357 276.06C56.5157 276.847 56.1557 277.953 56.1557 279.38V282.62C56.1557 284.047 56.5157 285.153 57.2357 285.94C57.969 286.727 58.9824 287.12 60.2757 287.12C61.5557 287.12 62.4957 286.76 63.0957 286.04C63.709 285.307 64.0157 284.367 64.0157 283.22V282.92H65.2957V283.18C65.2957 284.753 64.8624 286 63.9957 286.92C63.1424 287.827 61.9024 288.28 60.2757 288.28ZM68.1682 288V274H69.3682V279.98H69.6082C69.7682 279.66 69.9882 279.36 70.2682 279.08C70.5615 278.787 70.9349 278.553 71.3882 278.38C71.8549 278.193 72.4349 278.1 73.1282 278.1C73.8349 278.1 74.4815 278.247 75.0682 278.54C75.6549 278.833 76.1215 279.273 76.4682 279.86C76.8282 280.447 77.0082 281.187 77.0082 282.08V288H75.8082V282.16C75.8082 281.093 75.5415 280.333 75.0082 279.88C74.4749 279.413 73.7615 279.18 72.8682 279.18C71.8682 279.18 71.0349 279.507 70.3682 280.16C69.7015 280.813 69.3682 281.807 69.3682 283.14V288H68.1682ZM83.3943 288.28C82.7143 288.28 82.0943 288.167 81.5343 287.94C80.9876 287.7 80.5543 287.353 80.2343 286.9C79.9143 286.447 79.7543 285.9 79.7543 285.26C79.7543 284.607 79.9143 284.067 80.2343 283.64C80.5543 283.213 80.9876 282.893 81.5343 282.68C82.081 282.467 82.6876 282.36 83.3543 282.36H86.9143V281.58C86.9143 280.793 86.6876 280.18 86.2343 279.74C85.781 279.3 85.121 279.08 84.2543 279.08C83.401 279.08 82.721 279.293 82.2143 279.72C81.721 280.133 81.3876 280.693 81.2143 281.4L80.0543 281.06C80.2143 280.487 80.4676 279.973 80.8143 279.52C81.161 279.053 81.621 278.687 82.1943 278.42C82.7676 278.14 83.4543 278 84.2543 278C85.481 278 86.4276 278.32 87.0943 278.96C87.7743 279.6 88.1143 280.493 88.1143 281.64V286.36C88.1143 286.76 88.301 286.96 88.6743 286.96H89.6143V288H88.3343C87.921 288 87.5943 287.88 87.3543 287.64C87.1143 287.387 86.9943 287.047 86.9943 286.62V286.48H86.7943C86.621 286.773 86.3943 287.06 86.1143 287.34C85.8476 287.62 85.4943 287.847 85.0543 288.02C84.6143 288.193 84.061 288.28 83.3943 288.28ZM83.4743 287.2C84.501 287.2 85.3276 286.893 85.9543 286.28C86.5943 285.653 86.9143 284.773 86.9143 283.64V283.4H83.3743C82.681 283.4 82.101 283.553 81.6343 283.86C81.181 284.153 80.9543 284.613 80.9543 285.24C80.9543 285.867 81.1876 286.353 81.6543 286.7C82.1343 287.033 82.741 287.2 83.4743 287.2ZM91.8987 288V278.28H93.0587V280.08H93.2987C93.5387 279.56 93.932 279.1 94.4787 278.7C95.0253 278.287 95.8187 278.08 96.8587 278.08C97.5653 278.08 98.212 278.227 98.7987 278.52C99.3853 278.813 99.852 279.26 100.199 279.86C100.559 280.447 100.739 281.187 100.739 282.08V288H99.5387V282.16C99.5387 281.093 99.272 280.327 98.7387 279.86C98.2053 279.393 97.492 279.16 96.5987 279.16C95.5987 279.16 94.7653 279.493 94.0987 280.16C93.432 280.813 93.0987 281.807 93.0987 283.14V288H91.8987ZM108.345 288.28C107.478 288.28 106.691 288.08 105.985 287.68C105.278 287.267 104.711 286.687 104.285 285.94C103.871 285.18 103.665 284.287 103.665 283.26V283.02C103.665 281.993 103.871 281.107 104.285 280.36C104.698 279.6 105.258 279.02 105.965 278.62C106.685 278.207 107.478 278 108.345 278C109.065 278 109.671 278.1 110.165 278.3C110.658 278.487 111.058 278.733 111.365 279.04C111.685 279.333 111.931 279.647 112.105 279.98H112.345V274H113.545V288H112.385V286.22H112.145C111.865 286.753 111.425 287.233 110.825 287.66C110.238 288.073 109.411 288.28 108.345 288.28ZM108.625 287.2C109.731 287.2 110.625 286.847 111.305 286.14C111.998 285.433 112.345 284.46 112.345 283.22V283.06C112.345 281.82 111.998 280.847 111.305 280.14C110.625 279.433 109.731 279.08 108.625 279.08C107.531 279.08 106.638 279.433 105.945 280.14C105.251 280.847 104.905 281.82 104.905 283.06V283.22C104.905 284.46 105.251 285.433 105.945 286.14C106.638 286.847 107.531 287.2 108.625 287.2ZM117.074 288V278.28H118.274V288H117.074ZM117.674 276.6C117.381 276.6 117.134 276.5 116.934 276.3C116.734 276.1 116.634 275.853 116.634 275.56C116.634 275.253 116.734 275.007 116.934 274.82C117.134 274.62 117.381 274.52 117.674 274.52C117.981 274.52 118.228 274.62 118.414 274.82C118.614 275.007 118.714 275.253 118.714 275.56C118.714 275.853 118.614 276.1 118.414 276.3C118.228 276.5 117.981 276.6 117.674 276.6ZM121.321 283.18V282.94C121.321 281.913 121.528 281.033 121.941 280.3C122.368 279.567 122.934 279 123.641 278.6C124.348 278.2 125.134 278 126.001 278C127.068 278 127.894 278.213 128.481 278.64C129.081 279.053 129.521 279.527 129.801 280.06H130.041V278.28H131.161V290.48C131.161 290.96 131.034 291.333 130.781 291.6C130.528 291.867 130.141 292 129.621 292H122.981V290.92H129.381C129.794 290.92 130.001 290.72 130.001 290.32V286.14H129.761C129.588 286.46 129.341 286.773 129.021 287.08C128.714 287.387 128.314 287.64 127.821 287.84C127.328 288.027 126.721 288.12 126.001 288.12C125.134 288.12 124.341 287.92 123.621 287.52C122.914 287.12 122.354 286.553 121.941 285.82C121.528 285.073 121.321 284.193 121.321 283.18ZM126.281 287.04C127.388 287.04 128.281 286.693 128.961 286C129.654 285.307 130.001 284.353 130.001 283.14V282.98C130.001 281.753 129.654 280.8 128.961 280.12C128.281 279.427 127.388 279.08 126.281 279.08C125.188 279.08 124.294 279.427 123.601 280.12C122.908 280.8 122.561 281.753 122.561 282.98V283.14C122.561 284.353 122.908 285.307 123.601 286C124.294 286.693 125.188 287.04 126.281 287.04ZM137.652 288.28C136.972 288.28 136.352 288.167 135.792 287.94C135.245 287.7 134.812 287.353 134.492 286.9C134.172 286.447 134.012 285.9 134.012 285.26C134.012 284.607 134.172 284.067 134.492 283.64C134.812 283.213 135.245 282.893 135.792 282.68C136.339 282.467 136.945 282.36 137.612 282.36H141.172V281.58C141.172 280.793 140.945 280.18 140.492 279.74C140.039 279.3 139.379 279.08 138.512 279.08C137.659 279.08 136.979 279.293 136.472 279.72C135.979 280.133 135.645 280.693 135.472 281.4L134.312 281.06C134.472 280.487 134.725 279.973 135.072 279.52C135.419 279.053 135.879 278.687 136.452 278.42C137.025 278.14 137.712 278 138.512 278C139.739 278 140.685 278.32 141.352 278.96C142.032 279.6 142.372 280.493 142.372 281.64V286.36C142.372 286.76 142.559 286.96 142.932 286.96H143.872V288H142.592C142.179 288 141.852 287.88 141.612 287.64C141.372 287.387 141.252 287.047 141.252 286.62V286.48H141.052C140.879 286.773 140.652 287.06 140.372 287.34C140.105 287.62 139.752 287.847 139.312 288.02C138.872 288.193 138.319 288.28 137.652 288.28ZM137.732 287.2C138.759 287.2 139.585 286.893 140.212 286.28C140.852 285.653 141.172 284.773 141.172 283.64V283.4H137.632C136.939 283.4 136.359 283.553 135.892 283.86C135.439 284.153 135.212 284.613 135.212 285.24C135.212 285.867 135.445 286.353 135.912 286.7C136.392 287.033 136.999 287.2 137.732 287.2ZM146.156 288V278.28H147.316V279.5H147.556C147.743 279.06 148.016 278.74 148.376 278.54C148.75 278.34 149.263 278.24 149.916 278.24H151.056V279.36H149.776C149.043 279.36 148.456 279.567 148.016 279.98C147.576 280.393 147.356 281.04 147.356 281.92V288H146.156ZM153.539 288V274H154.739V279.98H154.979C155.139 279.66 155.359 279.36 155.639 279.08C155.933 278.787 156.306 278.553 156.759 278.38C157.226 278.193 157.806 278.1 158.499 278.1C159.206 278.1 159.853 278.247 160.439 278.54C161.026 278.833 161.493 279.273 161.839 279.86C162.199 280.447 162.379 281.187 162.379 282.08V288H161.179V282.16C161.179 281.093 160.913 280.333 160.379 279.88C159.846 279.413 159.133 279.18 158.239 279.18C157.239 279.18 156.406 279.507 155.739 280.16C155.073 280.813 154.739 281.807 154.739 283.14V288H153.539ZM175.902 288.28C174.755 288.28 173.768 288.073 172.942 287.66C172.128 287.233 171.502 286.633 171.062 285.86C170.635 285.073 170.422 284.147 170.422 283.08V274H173.062V283.16C173.062 284.013 173.302 284.687 173.782 285.18C174.275 285.673 174.982 285.92 175.902 285.92C176.822 285.92 177.522 285.673 178.002 285.18C178.495 284.687 178.742 284.013 178.742 283.16V274H181.382V283.08C181.382 284.147 181.162 285.073 180.722 285.86C180.295 286.633 179.668 287.233 178.842 287.66C178.028 288.073 177.048 288.28 175.902 288.28ZM184.019 288V278.08H186.499V279.38H186.859C187.019 279.033 187.319 278.707 187.759 278.4C188.199 278.08 188.866 277.92 189.759 277.92C190.532 277.92 191.206 278.1 191.779 278.46C192.366 278.807 192.819 279.293 193.139 279.92C193.459 280.533 193.619 281.253 193.619 282.08V288H191.099V282.28C191.099 281.533 190.912 280.973 190.539 280.6C190.179 280.227 189.659 280.04 188.979 280.04C188.206 280.04 187.606 280.3 187.179 280.82C186.752 281.327 186.539 282.04 186.539 282.96V288H184.019ZM196.343 288V278.08H198.863V288H196.343ZM197.603 276.92C197.15 276.92 196.763 276.773 196.443 276.48C196.137 276.187 195.983 275.8 195.983 275.32C195.983 274.84 196.137 274.453 196.443 274.16C196.763 273.867 197.15 273.72 197.603 273.72C198.07 273.72 198.457 273.867 198.763 274.16C199.07 274.453 199.223 274.84 199.223 275.32C199.223 275.8 199.07 276.187 198.763 276.48C198.457 276.773 198.07 276.92 197.603 276.92ZM203.736 288L200.576 278.08H203.256L205.556 286.16H205.916L208.216 278.08H210.896L207.736 288H203.736ZM216.84 288.28C215.853 288.28 214.98 288.073 214.22 287.66C213.473 287.233 212.887 286.64 212.46 285.88C212.047 285.107 211.84 284.2 211.84 283.16V282.92C211.84 281.88 212.047 280.98 212.46 280.22C212.873 279.447 213.453 278.853 214.2 278.44C214.947 278.013 215.813 277.8 216.8 277.8C217.773 277.8 218.62 278.02 219.34 278.46C220.06 278.887 220.62 279.487 221.02 280.26C221.42 281.02 221.62 281.907 221.62 282.92V283.78H214.4C214.427 284.46 214.68 285.013 215.16 285.44C215.64 285.867 216.227 286.08 216.92 286.08C217.627 286.08 218.147 285.927 218.48 285.62C218.813 285.313 219.067 284.973 219.24 284.6L221.3 285.68C221.113 286.027 220.84 286.407 220.48 286.82C220.133 287.22 219.667 287.567 219.08 287.86C218.493 288.14 217.747 288.28 216.84 288.28ZM214.42 281.9H219.06C219.007 281.327 218.773 280.867 218.36 280.52C217.96 280.173 217.433 280 216.78 280C216.1 280 215.56 280.173 215.16 280.52C214.76 280.867 214.513 281.327 214.42 281.9ZM223.863 288V278.08H226.343V279.2H226.703C226.85 278.8 227.09 278.507 227.423 278.32C227.77 278.133 228.17 278.04 228.623 278.04H229.823V280.28H228.583C227.943 280.28 227.416 280.453 227.003 280.8C226.59 281.133 226.383 281.653 226.383 282.36V288H223.863ZM235.678 288.28C234.385 288.28 233.325 288 232.498 287.44C231.672 286.88 231.172 286.08 230.998 285.04L233.318 284.44C233.412 284.907 233.565 285.273 233.778 285.54C234.005 285.807 234.278 286 234.598 286.12C234.932 286.227 235.292 286.28 235.678 286.28C236.265 286.28 236.698 286.18 236.978 285.98C237.258 285.767 237.398 285.507 237.398 285.2C237.398 284.893 237.265 284.66 236.998 284.5C236.732 284.327 236.305 284.187 235.718 284.08L235.158 283.98C234.465 283.847 233.832 283.667 233.258 283.44C232.685 283.2 232.225 282.873 231.878 282.46C231.532 282.047 231.358 281.513 231.358 280.86C231.358 279.873 231.718 279.12 232.438 278.6C233.158 278.067 234.105 277.8 235.278 277.8C236.385 277.8 237.305 278.047 238.038 278.54C238.772 279.033 239.252 279.68 239.478 280.48L237.138 281.2C237.032 280.693 236.812 280.333 236.478 280.12C236.158 279.907 235.758 279.8 235.278 279.8C234.798 279.8 234.432 279.887 234.178 280.06C233.925 280.22 233.798 280.447 233.798 280.74C233.798 281.06 233.932 281.3 234.198 281.46C234.465 281.607 234.825 281.72 235.278 281.8L235.838 281.9C236.585 282.033 237.258 282.213 237.858 282.44C238.472 282.653 238.952 282.967 239.298 283.38C239.658 283.78 239.838 284.327 239.838 285.02C239.838 286.06 239.458 286.867 238.698 287.44C237.952 288 236.945 288.28 235.678 288.28ZM242.046 288V278.08H244.566V288H242.046ZM243.306 276.92C242.853 276.92 242.466 276.773 242.146 276.48C241.84 276.187 241.686 275.8 241.686 275.32C241.686 274.84 241.84 274.453 242.146 274.16C242.466 273.867 242.853 273.72 243.306 273.72C243.773 273.72 244.16 273.867 244.466 274.16C244.773 274.453 244.926 274.84 244.926 275.32C244.926 275.8 244.773 276.187 244.466 276.48C244.16 276.773 243.773 276.92 243.306 276.92ZM251.159 288C250.506 288 249.972 287.8 249.559 287.4C249.159 286.987 248.959 286.44 248.959 285.76V280.16H246.479V278.08H248.959V275H251.479V278.08H254.199V280.16H251.479V285.32C251.479 285.72 251.666 285.92 252.039 285.92H253.959V288H251.159ZM257.56 292V289.8H262.96C263.333 289.8 263.52 289.6 263.52 289.2V286.7H263.16C263.053 286.927 262.887 287.153 262.66 287.38C262.433 287.607 262.127 287.793 261.74 287.94C261.353 288.087 260.86 288.16 260.26 288.16C259.487 288.16 258.807 287.987 258.22 287.64C257.647 287.28 257.2 286.787 256.88 286.16C256.56 285.533 256.4 284.813 256.4 284V278.08H258.92V283.8C258.92 284.547 259.1 285.107 259.46 285.48C259.833 285.853 260.36 286.04 261.04 286.04C261.813 286.04 262.413 285.787 262.84 285.28C263.267 284.76 263.48 284.04 263.48 283.12V278.08H266V289.76C266 290.44 265.8 290.98 265.4 291.38C265 291.793 264.467 292 263.8 292H257.56ZM118.696 314V312.84H120.696V301.16H118.696V300H125.636C126.436 300 127.15 300.147 127.776 300.44C128.403 300.733 128.89 301.147 129.236 301.68C129.596 302.2 129.776 302.807 129.776 303.5V303.66C129.776 304.313 129.65 304.853 129.396 305.28C129.143 305.707 128.836 306.04 128.476 306.28C128.116 306.52 127.763 306.693 127.416 306.8V307.04C127.763 307.12 128.116 307.287 128.476 307.54C128.85 307.78 129.156 308.113 129.396 308.54C129.65 308.967 129.776 309.507 129.776 310.16V310.36C129.776 311.12 129.59 311.773 129.216 312.32C128.856 312.867 128.356 313.287 127.716 313.58C127.09 313.86 126.376 314 125.576 314H118.696ZM121.976 312.84H125.456C126.456 312.84 127.21 312.607 127.716 312.14C128.236 311.673 128.496 311.047 128.496 310.26V310.1C128.496 309.313 128.236 308.687 127.716 308.22C127.21 307.753 126.456 307.52 125.456 307.52H121.976V312.84ZM121.976 306.36H125.536C126.456 306.36 127.176 306.133 127.696 305.68C128.23 305.213 128.496 304.607 128.496 303.86V303.66C128.496 302.913 128.23 302.313 127.696 301.86C127.176 301.393 126.456 301.16 125.536 301.16H121.976V306.36ZM133.279 314.28C132.946 314.28 132.673 314.173 132.459 313.96C132.246 313.747 132.139 313.473 132.139 313.14C132.139 312.807 132.246 312.533 132.459 312.32C132.673 312.107 132.946 312 133.279 312C133.613 312 133.886 312.107 134.099 312.32C134.313 312.533 134.419 312.807 134.419 313.14C134.419 313.473 134.313 313.747 134.099 313.96C133.886 314.173 133.613 314.28 133.279 314.28ZM137.347 314V300H145.807V301.16H138.627V306.4H145.247V307.56H138.627V312.84H145.887V314H137.347ZM159.351 318.6C158.138 318.6 157.084 318.387 156.191 317.96C155.311 317.547 154.624 316.873 154.131 315.94C153.651 315.02 153.411 313.813 153.411 312.32V305.48C153.411 303.973 153.651 302.76 154.131 301.84C154.624 300.92 155.311 300.253 156.191 299.84C157.084 299.413 158.138 299.2 159.351 299.2V300.24C157.698 300.267 156.484 300.72 155.711 301.6C154.951 302.467 154.571 303.793 154.571 305.58V312.22C154.571 313.993 154.951 315.32 155.711 316.2C156.484 317.08 157.698 317.533 159.351 317.56V318.6ZM166.037 314.28C164.397 314.28 163.084 313.8 162.097 312.84C161.124 311.867 160.637 310.447 160.637 308.58V305.42C160.637 303.553 161.124 302.14 162.097 301.18C163.084 300.207 164.397 299.72 166.037 299.72C167.664 299.72 168.904 300.18 169.757 301.1C170.624 302.007 171.057 303.247 171.057 304.82V304.92H169.777V304.78C169.777 303.633 169.471 302.7 168.857 301.98C168.257 301.247 167.317 300.88 166.037 300.88C164.744 300.88 163.731 301.273 162.997 302.06C162.277 302.847 161.917 303.953 161.917 305.38V308.62C161.917 310.047 162.277 311.153 162.997 311.94C163.731 312.727 164.744 313.12 166.037 313.12C167.317 313.12 168.257 312.76 168.857 312.04C169.471 311.307 169.777 310.367 169.777 309.22V308.92H171.057V309.18C171.057 310.753 170.624 312 169.757 312.92C168.904 313.827 167.664 314.28 166.037 314.28ZM178.47 314.28C177.47 314.28 176.577 314.107 175.79 313.76C175.003 313.4 174.383 312.86 173.93 312.14C173.477 311.407 173.25 310.48 173.25 309.36V308.98H174.53V309.36C174.53 310.653 174.897 311.613 175.63 312.24C176.377 312.853 177.323 313.16 178.47 313.16C179.63 313.16 180.523 312.893 181.15 312.36C181.777 311.813 182.09 311.12 182.09 310.28C182.09 309.72 181.95 309.273 181.67 308.94C181.403 308.593 181.023 308.32 180.53 308.12C180.05 307.907 179.49 307.72 178.85 307.56L177.57 307.24C176.81 307.04 176.13 306.793 175.53 306.5C174.93 306.193 174.457 305.8 174.11 305.32C173.763 304.827 173.59 304.2 173.59 303.44C173.59 302.68 173.783 302.02 174.17 301.46C174.57 300.9 175.117 300.473 175.81 300.18C176.503 299.873 177.31 299.72 178.23 299.72C179.15 299.72 179.977 299.88 180.71 300.2C181.457 300.52 182.043 300.993 182.47 301.62C182.91 302.233 183.13 303.007 183.13 303.94V304.88H181.85V303.94C181.85 303.207 181.69 302.613 181.37 302.16C181.05 301.707 180.617 301.373 180.07 301.16C179.523 300.947 178.91 300.84 178.23 300.84C177.257 300.84 176.45 301.067 175.81 301.52C175.183 301.96 174.87 302.6 174.87 303.44C174.87 304 174.997 304.447 175.25 304.78C175.517 305.113 175.883 305.38 176.35 305.58C176.83 305.78 177.39 305.96 178.03 306.12L179.31 306.44C180.043 306.613 180.717 306.847 181.33 307.14C181.943 307.42 182.437 307.813 182.81 308.32C183.183 308.813 183.37 309.467 183.37 310.28C183.37 311.093 183.163 311.8 182.75 312.4C182.35 313 181.783 313.467 181.05 313.8C180.317 314.12 179.457 314.28 178.47 314.28ZM186.214 314V300H194.674V301.16H187.494V306.4H194.114V307.56H187.494V312.84H194.754V314H186.214ZM196.042 318.6V317.56C197.708 317.533 198.922 317.08 199.682 316.2C200.442 315.32 200.822 313.993 200.822 312.22V305.58C200.822 303.793 200.442 302.467 199.682 301.6C198.922 300.72 197.708 300.267 196.042 300.24V299.2C197.255 299.2 198.302 299.413 199.182 299.84C200.075 300.253 200.762 300.92 201.242 301.84C201.735 302.76 201.982 303.973 201.982 305.48V312.32C201.982 313.813 201.735 315.02 201.242 315.94C200.762 316.873 200.075 317.547 199.182 317.96C198.302 318.387 197.255 318.6 196.042 318.6Z" fill="#E3E3E3"/>
</svg>
