<svg width="353" height="211" viewBox="0 0 353 211" fill="none" xmlns="http://www.w3.org/2000/svg">
<rect width="353" height="211" rx="10" fill="#0C1021"/>
<ellipse cx="42.36" cy="22.0739" rx="6.41818" ry="6.49231" fill="#FFBD2E"/>
<ellipse cx="63.54" cy="22.0739" rx="6.41818" ry="6.49231" fill="#27C93F"/>
<ellipse cx="21.18" cy="22.0739" rx="6.41818" ry="6.49231" fill="#FF5F56"/>
<path d="M114.999 81.1422H117.303L112.719 98.3262H110.463L106.767 86.9982H106.671L102.975 98.3262H100.719L95.9426 81.1422H98.2466L101.871 94.6542H101.967L105.687 83.4462H107.751L111.471 94.6542H111.567L114.999 81.1422ZM122.995 98.7102C121.267 98.7102 119.843 98.1182 118.723 96.9342C117.603 95.7502 117.043 94.2542 117.043 92.4462C117.043 90.6542 117.587 89.1662 118.675 87.9822C119.763 86.7822 121.155 86.1822 122.851 86.1822C124.595 86.1822 125.979 86.7502 127.003 87.8862C128.043 89.0062 128.563 90.5822 128.563 92.6142L128.539 92.8542H119.299C119.331 94.0062 119.715 94.9342 120.451 95.6382C121.187 96.3422 122.067 96.6942 123.091 96.6942C124.499 96.6942 125.603 95.9902 126.403 94.5822L128.371 95.5422C127.843 96.5342 127.107 97.3102 126.163 97.8702C125.235 98.4302 124.179 98.7102 122.995 98.7102ZM119.467 91.0302H126.211C126.147 90.2142 125.811 89.5422 125.203 89.0142C124.611 88.4702 123.811 88.1982 122.803 88.1982C121.971 88.1982 121.251 88.4542 120.643 88.9662C120.051 89.4782 119.659 90.1662 119.467 91.0302ZM132.79 81.1422V98.3262H130.582V81.1422H132.79ZM140.739 98.7102C138.995 98.7102 137.547 98.1182 136.395 96.9342C135.259 95.7182 134.691 94.2222 134.691 92.4462C134.691 90.6382 135.259 89.1422 136.395 87.9582C137.547 86.7742 138.995 86.1822 140.739 86.1822C141.939 86.1822 142.987 86.4862 143.883 87.0942C144.779 87.6862 145.451 88.5102 145.899 89.5662L143.883 90.4062C143.259 88.9342 142.163 88.1982 140.595 88.1982C139.587 88.1982 138.715 88.6062 137.979 89.4222C137.259 90.2382 136.899 91.2462 136.899 92.4462C136.899 93.6462 137.259 94.6542 137.979 95.4702C138.715 96.2862 139.587 96.6942 140.595 96.6942C142.211 96.6942 143.347 95.9582 144.003 94.4862L145.971 95.3262C145.539 96.3822 144.859 97.2142 143.931 97.8222C143.019 98.4142 141.955 98.7102 140.739 98.7102ZM147.113 92.4462C147.113 90.6382 147.681 89.1422 148.817 87.9582C149.969 86.7742 151.417 86.1822 153.161 86.1822C154.905 86.1822 156.345 86.7742 157.481 87.9582C158.633 89.1422 159.209 90.6382 159.209 92.4462C159.209 94.2702 158.633 95.7662 157.481 96.9342C156.345 98.1182 154.905 98.7102 153.161 98.7102C151.417 98.7102 149.969 98.1182 148.817 96.9342C147.681 95.7502 147.113 94.2542 147.113 92.4462ZM149.321 92.4462C149.321 93.7102 149.689 94.7342 150.425 95.5182C151.161 96.3022 152.073 96.6942 153.161 96.6942C154.249 96.6942 155.161 96.3022 155.897 95.5182C156.633 94.7342 157.001 93.7102 157.001 92.4462C157.001 91.1982 156.633 90.1822 155.897 89.3982C155.145 88.5982 154.233 88.1982 153.161 88.1982C152.089 88.1982 151.177 88.5982 150.425 89.3982C149.689 90.1822 149.321 91.1982 149.321 92.4462ZM163.189 98.3262H160.981V86.5662H163.093V88.1982H163.189C163.525 87.6222 164.037 87.1422 164.725 86.7582C165.429 86.3742 166.125 86.1822 166.813 86.1822C167.677 86.1822 168.437 86.3822 169.093 86.7822C169.749 87.1822 170.229 87.7342 170.533 88.4382C171.509 86.9342 172.861 86.1822 174.589 86.1822C175.949 86.1822 176.997 86.5982 177.733 87.4302C178.469 88.2622 178.837 89.4462 178.837 90.9822V98.3262H176.629V91.3182C176.629 90.2142 176.429 89.4222 176.029 88.9422C175.629 88.4462 174.957 88.1982 174.013 88.1982C173.165 88.1982 172.453 88.5582 171.877 89.2782C171.301 89.9982 171.013 90.8462 171.013 91.8222V98.3262H168.805V91.3182C168.805 90.2142 168.605 89.4222 168.205 88.9422C167.805 88.4462 167.133 88.1982 166.189 88.1982C165.341 88.1982 164.629 88.5582 164.053 89.2782C163.477 89.9982 163.189 90.8462 163.189 91.8222V98.3262ZM186.698 98.7102C184.97 98.7102 183.546 98.1182 182.426 96.9342C181.306 95.7502 180.746 94.2542 180.746 92.4462C180.746 90.6542 181.29 89.1662 182.378 87.9822C183.466 86.7822 184.858 86.1822 186.554 86.1822C188.298 86.1822 189.682 86.7502 190.706 87.8862C191.746 89.0062 192.266 90.5822 192.266 92.6142L192.242 92.8542H183.002C183.034 94.0062 183.418 94.9342 184.154 95.6382C184.89 96.3422 185.77 96.6942 186.794 96.6942C188.202 96.6942 189.306 95.9902 190.106 94.5822L192.074 95.5422C191.546 96.5342 190.81 97.3102 189.866 97.8702C188.938 98.4302 187.882 98.7102 186.698 98.7102ZM183.17 91.0302H189.914C189.85 90.2142 189.514 89.5422 188.906 89.0142C188.314 88.4702 187.514 88.1982 186.506 88.1982C185.674 88.1982 184.954 88.4542 184.346 88.9662C183.754 89.4782 183.362 90.1662 183.17 91.0302ZM204.215 98.5182C203.255 98.5182 202.455 98.2222 201.815 97.6302C201.191 97.0382 200.871 96.2142 200.855 95.1582V88.5822H198.791V86.5662H200.855V82.9662H203.063V86.5662H205.943V88.5822H203.063V94.4382C203.063 95.2222 203.215 95.7582 203.519 96.0462C203.823 96.3182 204.167 96.4542 204.551 96.4542C204.727 96.4542 204.895 96.4382 205.055 96.4062C205.231 96.3582 205.391 96.3022 205.535 96.2382L206.231 98.2062C205.655 98.4142 204.983 98.5182 204.215 98.5182ZM207.254 92.4462C207.254 90.6382 207.822 89.1422 208.958 87.9582C210.11 86.7742 211.558 86.1822 213.302 86.1822C215.046 86.1822 216.486 86.7742 217.622 87.9582C218.774 89.1422 219.35 90.6382 219.35 92.4462C219.35 94.2702 218.774 95.7662 217.622 96.9342C216.486 98.1182 215.046 98.7102 213.302 98.7102C211.558 98.7102 210.11 98.1182 208.958 96.9342C207.822 95.7502 207.254 94.2542 207.254 92.4462ZM209.462 92.4462C209.462 93.7102 209.83 94.7342 210.566 95.5182C211.302 96.3022 212.214 96.6942 213.302 96.6942C214.39 96.6942 215.302 96.3022 216.038 95.5182C216.774 94.7342 217.142 93.7102 217.142 92.4462C217.142 91.1982 216.774 90.1822 216.038 89.3982C215.286 88.5982 214.374 88.1982 213.302 88.1982C212.23 88.1982 211.318 88.5982 210.566 89.3982C209.83 90.1822 209.462 91.1982 209.462 92.4462ZM228.837 98.3262H226.629V86.5662H228.741V88.1982H228.837C229.173 87.6222 229.685 87.1422 230.373 86.7582C231.077 86.3742 231.773 86.1822 232.461 86.1822C233.325 86.1822 234.085 86.3822 234.741 86.7822C235.397 87.1822 235.877 87.7342 236.181 88.4382C237.157 86.9342 238.509 86.1822 240.237 86.1822C241.597 86.1822 242.645 86.5982 243.381 87.4302C244.117 88.2622 244.485 89.4462 244.485 90.9822V98.3262H242.277V91.3182C242.277 90.2142 242.077 89.4222 241.677 88.9422C241.277 88.4462 240.605 88.1982 239.661 88.1982C238.813 88.1982 238.101 88.5582 237.525 89.2782C236.949 89.9982 236.661 90.8462 236.661 91.8222V98.3262H234.453V91.3182C234.453 90.2142 234.253 89.4222 233.853 88.9422C233.453 88.4462 232.781 88.1982 231.837 88.1982C230.989 88.1982 230.277 88.5582 229.701 89.2782C229.125 89.9982 228.837 90.8462 228.837 91.8222V98.3262ZM257.344 86.5662L249.976 103.51H247.696L250.432 97.5822L245.584 86.5662H247.984L251.488 95.0142H251.536L254.944 86.5662H257.344Z" fill="white"/>
<path d="M94.0278 123.424H105.26C105.324 123.68 105.377 123.989 105.42 124.352C105.462 124.715 105.484 125.077 105.484 125.44C105.484 126.912 105.26 128.299 104.812 129.6C104.364 130.901 103.66 132.064 102.7 133.088C101.676 134.176 100.449 135.019 99.0198 135.616C97.5904 136.213 95.9584 136.512 94.1238 136.512C92.4598 136.512 90.8918 136.213 89.4198 135.616C87.9478 135.019 86.6678 134.187 85.5798 133.12C84.4918 132.053 83.6278 130.795 82.9878 129.344C82.3478 127.872 82.0278 126.272 82.0278 124.544C82.0278 122.816 82.3478 121.227 82.9878 119.776C83.6278 118.304 84.4918 117.035 85.5798 115.968C86.6678 114.901 87.9478 114.069 89.4198 113.472C90.8918 112.875 92.4598 112.576 94.1238 112.576C95.9798 112.576 97.6331 112.896 99.0838 113.536C100.556 114.176 101.814 115.061 102.86 116.192L99.8838 119.104C99.1371 118.315 98.3051 117.717 97.3878 117.312C96.4704 116.885 95.3718 116.672 94.0918 116.672C93.0464 116.672 92.0544 116.864 91.1158 117.248C90.1771 117.611 89.3558 118.133 88.6518 118.816C87.9478 119.499 87.3824 120.331 86.9558 121.312C86.5504 122.272 86.3478 123.349 86.3478 124.544C86.3478 125.739 86.5504 126.827 86.9558 127.808C87.3824 128.768 87.9478 129.589 88.6518 130.272C89.3771 130.955 90.2091 131.488 91.1478 131.872C92.0864 132.235 93.0891 132.416 94.1558 132.416C95.3718 132.416 96.3958 132.245 97.2278 131.904C98.0811 131.541 98.8064 131.083 99.4038 130.528C99.8304 130.144 100.193 129.664 100.492 129.088C100.812 128.491 101.057 127.829 101.228 127.104H94.0278V123.424ZM110.878 118.048C110.515 118.048 110.163 117.984 109.822 117.856C109.502 117.707 109.214 117.515 108.958 117.28C108.723 117.024 108.531 116.736 108.382 116.416C108.254 116.096 108.19 115.744 108.19 115.36C108.19 114.976 108.254 114.624 108.382 114.304C108.531 113.984 108.723 113.707 108.958 113.472C109.214 113.216 109.502 113.024 109.822 112.896C110.163 112.747 110.515 112.672 110.878 112.672C111.625 112.672 112.265 112.939 112.798 113.472C113.331 113.984 113.598 114.613 113.598 115.36C113.598 116.107 113.331 116.747 112.798 117.28C112.265 117.792 111.625 118.048 110.878 118.048ZM108.798 136V120.32H112.99V136H108.798ZM118.395 123.904H115.643V120.32H118.395V115.52H122.587V120.32H126.427V123.904H122.587V129.984C122.587 130.347 122.619 130.688 122.683 131.008C122.768 131.307 122.918 131.563 123.131 131.776C123.43 132.117 123.856 132.288 124.411 132.288C124.774 132.288 125.062 132.256 125.275 132.192C125.488 132.107 125.691 132 125.883 131.872L127.067 135.552C126.576 135.787 126.043 135.957 125.467 136.064C124.912 136.192 124.294 136.256 123.611 136.256C122.822 136.256 122.107 136.139 121.467 135.904C120.848 135.648 120.326 135.307 119.899 134.88C118.896 133.92 118.395 132.555 118.395 130.784V123.904ZM129.667 113.088H133.859V119.52L133.603 122.368H133.859C134.307 121.621 134.947 121.013 135.779 120.544C136.632 120.053 137.582 119.808 138.627 119.808C140.654 119.808 142.147 120.405 143.107 121.6C144.088 122.795 144.579 124.427 144.579 126.496V136H140.387V127.008C140.387 125.92 140.131 125.099 139.619 124.544C139.107 123.968 138.392 123.68 137.475 123.68C136.899 123.68 136.387 123.808 135.939 124.064C135.491 124.299 135.107 124.629 134.787 125.056C134.488 125.483 134.254 125.984 134.083 126.56C133.934 127.115 133.859 127.712 133.859 128.352V136H129.667V113.088ZM158.89 133.952H158.634C158.143 134.741 157.482 135.371 156.65 135.84C155.818 136.288 154.869 136.512 153.802 136.512C151.818 136.512 150.335 135.904 149.354 134.688C148.394 133.472 147.914 131.851 147.914 129.824V120.32H152.106V129.312C152.106 130.443 152.351 131.285 152.842 131.84C153.354 132.373 154.09 132.64 155.05 132.64C155.626 132.64 156.127 132.523 156.554 132.288C157.002 132.032 157.375 131.701 157.674 131.296C157.994 130.869 158.229 130.379 158.378 129.824C158.549 129.248 158.634 128.64 158.634 128V120.32H162.826V136H158.89V133.952ZM166.417 113.088H170.609V119.968L170.353 122.208H170.609C170.993 121.547 171.59 120.981 172.401 120.512C173.212 120.043 174.214 119.808 175.409 119.808C176.412 119.808 177.361 120.021 178.257 120.448C179.174 120.853 179.974 121.429 180.657 122.176C181.361 122.901 181.916 123.776 182.321 124.8C182.726 125.824 182.929 126.944 182.929 128.16C182.929 129.376 182.726 130.496 182.321 131.52C181.916 132.544 181.361 133.429 180.657 134.176C179.974 134.901 179.174 135.477 178.257 135.904C177.361 136.309 176.412 136.512 175.409 136.512C174.214 136.512 173.212 136.277 172.401 135.808C171.59 135.339 170.993 134.773 170.609 134.112H170.353V136H166.417V113.088ZM174.545 132.64C175.1 132.64 175.622 132.533 176.113 132.32C176.625 132.107 177.073 131.808 177.457 131.424C177.841 131.04 178.15 130.571 178.385 130.016C178.62 129.461 178.737 128.843 178.737 128.16C178.737 127.477 178.62 126.859 178.385 126.304C178.15 125.749 177.841 125.28 177.457 124.896C177.073 124.512 176.625 124.213 176.113 124C175.622 123.787 175.1 123.68 174.545 123.68C173.99 123.68 173.457 123.787 172.945 124C172.454 124.192 172.017 124.48 171.633 124.864C171.249 125.248 170.94 125.717 170.705 126.272C170.47 126.827 170.353 127.456 170.353 128.16C170.353 128.864 170.47 129.493 170.705 130.048C170.94 130.603 171.249 131.072 171.633 131.456C172.017 131.84 172.454 132.139 172.945 132.352C173.457 132.544 173.99 132.64 174.545 132.64ZM193.148 136V113.088H201.212C202.3 113.088 203.313 113.269 204.252 113.632C205.212 113.973 206.044 114.464 206.748 115.104C207.452 115.744 208.006 116.512 208.412 117.408C208.817 118.283 209.02 119.253 209.02 120.32C209.02 121.408 208.817 122.4 208.412 123.296C208.006 124.171 207.452 124.928 206.748 125.568C206.044 126.208 205.212 126.709 204.252 127.072C203.313 127.413 202.3 127.584 201.212 127.584H197.468V136H193.148ZM201.276 123.488C202.406 123.488 203.26 123.168 203.836 122.528C204.412 121.888 204.7 121.152 204.7 120.32C204.7 119.915 204.625 119.52 204.476 119.136C204.348 118.752 204.134 118.421 203.836 118.144C203.558 117.845 203.206 117.611 202.78 117.44C202.353 117.269 201.852 117.184 201.276 117.184H197.468V123.488H201.276ZM211.573 120.32H215.509V122.496H215.765C215.957 122.112 216.213 121.76 216.533 121.44C216.853 121.12 217.205 120.843 217.589 120.608C217.995 120.373 218.421 120.192 218.869 120.064C219.339 119.936 219.797 119.872 220.245 119.872C220.8 119.872 221.269 119.925 221.653 120.032C222.059 120.139 222.4 120.277 222.677 120.448L221.557 124.256C221.301 124.128 221.013 124.032 220.693 123.968C220.395 123.883 220.021 123.84 219.573 123.84C218.997 123.84 218.475 123.957 218.005 124.192C217.536 124.405 217.131 124.715 216.789 125.12C216.469 125.525 216.213 126.005 216.021 126.56C215.851 127.093 215.765 127.68 215.765 128.32V136H211.573V120.32ZM231.06 119.808C232.276 119.808 233.385 120.021 234.388 120.448C235.412 120.853 236.286 121.429 237.012 122.176C237.758 122.901 238.334 123.776 238.74 124.8C239.166 125.824 239.38 126.944 239.38 128.16C239.38 129.376 239.166 130.496 238.74 131.52C238.334 132.544 237.758 133.429 237.012 134.176C236.286 134.901 235.412 135.477 234.388 135.904C233.385 136.309 232.276 136.512 231.06 136.512C229.844 136.512 228.724 136.309 227.7 135.904C226.697 135.477 225.822 134.901 225.076 134.176C224.35 133.429 223.774 132.544 223.348 131.52C222.942 130.496 222.74 129.376 222.74 128.16C222.74 126.944 222.942 125.824 223.348 124.8C223.774 123.776 224.35 122.901 225.076 122.176C225.822 121.429 226.697 120.853 227.7 120.448C228.724 120.021 229.844 119.808 231.06 119.808ZM231.06 132.64C231.593 132.64 232.105 132.544 232.596 132.352C233.108 132.139 233.556 131.84 233.94 131.456C234.324 131.072 234.622 130.603 234.836 130.048C235.07 129.493 235.188 128.864 235.188 128.16C235.188 127.456 235.07 126.827 234.836 126.272C234.622 125.717 234.324 125.248 233.94 124.864C233.556 124.48 233.108 124.192 232.596 124C232.105 123.787 231.593 123.68 231.06 123.68C230.505 123.68 229.982 123.787 229.492 124C229.001 124.192 228.564 124.48 228.18 124.864C227.796 125.248 227.486 125.717 227.252 126.272C227.038 126.827 226.932 127.456 226.932 128.16C226.932 128.864 227.038 129.493 227.252 130.048C227.486 130.603 227.796 131.072 228.18 131.456C228.564 131.84 229.001 132.139 229.492 132.352C229.982 132.544 230.505 132.64 231.06 132.64ZM247.589 136H243.397V123.904H240.581V120.32H243.397V118.784C243.397 117.824 243.535 116.981 243.812 116.256C244.111 115.509 244.527 114.891 245.061 114.4C245.594 113.888 246.223 113.504 246.949 113.248C247.674 112.971 248.474 112.832 249.349 112.832C249.775 112.832 250.117 112.853 250.373 112.896C250.629 112.939 250.874 113.003 251.109 113.088L250.853 117.024C250.703 116.96 250.533 116.907 250.341 116.864C250.149 116.821 249.903 116.8 249.605 116.8C248.986 116.8 248.495 117.003 248.133 117.408C247.77 117.792 247.589 118.336 247.589 119.04V120.32H257.701V136H253.509V123.904H247.589V136ZM255.589 118.048C255.226 118.048 254.874 117.984 254.533 117.856C254.213 117.707 253.925 117.515 253.669 117.28C253.434 117.024 253.242 116.736 253.093 116.416C252.965 116.096 252.901 115.744 252.901 115.36C252.901 114.976 252.965 114.624 253.093 114.304C253.242 113.984 253.434 113.707 253.669 113.472C253.925 113.216 254.213 113.024 254.533 112.896C254.874 112.747 255.226 112.672 255.589 112.672C256.335 112.672 256.975 112.939 257.509 113.472C258.042 113.984 258.309 114.613 258.309 115.36C258.309 116.107 258.042 116.747 257.509 117.28C256.975 117.792 256.335 118.048 255.589 118.048ZM261.542 136V113.088H265.734V136H261.542ZM284.015 132.224C283.29 133.504 282.308 134.539 281.071 135.328C279.855 136.117 278.362 136.512 276.591 136.512C275.396 136.512 274.287 136.309 273.263 135.904C272.26 135.477 271.386 134.891 270.639 134.144C269.892 133.397 269.306 132.523 268.879 131.52C268.474 130.496 268.271 129.376 268.271 128.16C268.271 127.029 268.474 125.963 268.879 124.96C269.284 123.936 269.85 123.051 270.575 122.304C271.3 121.536 272.154 120.928 273.135 120.48C274.138 120.032 275.236 119.808 276.431 119.808C277.69 119.808 278.81 120.021 279.791 120.448C280.772 120.853 281.594 121.429 282.255 122.176C282.916 122.901 283.418 123.765 283.759 124.768C284.1 125.771 284.271 126.859 284.271 128.032C284.271 128.181 284.271 128.309 284.271 128.416C284.25 128.544 284.239 128.661 284.239 128.768C284.218 128.875 284.207 128.992 284.207 129.12H272.399C272.484 129.76 272.655 130.315 272.911 130.784C273.188 131.232 273.519 131.616 273.903 131.936C274.308 132.235 274.746 132.459 275.215 132.608C275.684 132.736 276.164 132.8 276.655 132.8C277.615 132.8 278.404 132.587 279.023 132.16C279.663 131.712 280.164 131.157 280.527 130.496L284.015 132.224ZM280.207 126.144C280.186 125.867 280.09 125.557 279.919 125.216C279.77 124.875 279.535 124.555 279.215 124.256C278.916 123.957 278.532 123.712 278.063 123.52C277.615 123.328 277.071 123.232 276.431 123.232C275.535 123.232 274.746 123.488 274.063 124C273.38 124.512 272.9 125.227 272.623 126.144H280.207Z" fill="white"/>
<path d="M269.602 62.6978C270.21 60.8737 272.79 60.8737 273.398 62.6978L274.857 67.0793C275.041 67.6313 275.456 68.0758 275.994 68.2971L280.501 70.1502C282.154 70.8297 282.154 73.1703 280.501 73.8498L275.994 75.7029C275.456 75.9242 275.041 76.3687 274.857 76.9207L273.398 81.3022C272.79 83.1263 270.21 83.1263 269.602 81.3022L268.143 76.9207C267.959 76.3687 267.544 75.9242 267.006 75.7029L262.499 73.8498C260.846 73.1703 260.846 70.8297 262.499 70.1502L267.006 68.2971C267.544 68.0758 267.959 67.6313 268.143 67.0793L269.602 62.6978Z" fill="#EACF2C"/>
<path d="M283.354 80.1346C283.994 78.384 286.47 78.384 287.11 80.1346L287.95 82.4293C288.15 82.9774 288.58 83.4106 289.127 83.6153L291.459 84.4885C293.191 85.1367 293.191 87.5864 291.459 88.2346L289.127 89.1078C288.58 89.3124 288.15 89.7456 287.95 90.2938L287.11 92.5885C286.47 94.339 283.994 94.339 283.354 92.5885L282.514 90.2938C282.314 89.7456 281.884 89.3124 281.337 89.1078L279.004 88.2346C277.272 87.5864 277.272 85.1367 279.004 84.4885L281.337 83.6153C281.884 83.4106 282.314 82.9774 282.514 82.4293L283.354 80.1346Z" fill="#E089FF"/>
</svg>
