<svg width="550" height="325" viewBox="0 0 550 325" fill="none" xmlns="http://www.w3.org/2000/svg">
<rect width="550" height="325" rx="10" fill="#0C1021"/>
<circle cx="66" cy="34" r="10" fill="#FFBD2E"/>
<circle cx="99" cy="34" r="10" fill="#27C93F"/>
<circle cx="33" cy="34" r="10" fill="#FF5F56"/>
<path d="M182.748 126.224H186.204L179.328 152H175.944L170.4 135.008H170.256L164.712 152H161.328L154.164 126.224H157.62L163.056 146.492H163.2L168.78 129.68H171.876L177.456 146.492H177.6L182.748 126.224ZM194.743 152.576C192.151 152.576 190.015 151.688 188.335 149.912C186.655 148.136 185.815 145.892 185.815 143.18C185.815 140.492 186.631 138.26 188.263 136.484C189.895 134.684 191.983 133.784 194.527 133.784C197.143 133.784 199.219 134.636 200.755 136.34C202.315 138.02 203.095 140.384 203.095 143.432L203.059 143.792H189.199C189.247 145.52 189.823 146.912 190.927 147.968C192.031 149.024 193.351 149.552 194.887 149.552C196.999 149.552 198.655 148.496 199.855 146.384L202.807 147.824C202.015 149.312 200.911 150.476 199.495 151.316C198.103 152.156 196.519 152.576 194.743 152.576ZM189.451 141.056H199.567C199.471 139.832 198.967 138.824 198.055 138.032C197.167 137.216 195.967 136.808 194.455 136.808C193.207 136.808 192.127 137.192 191.215 137.96C190.327 138.728 189.739 139.76 189.451 141.056ZM209.435 126.224V152H206.123V126.224H209.435ZM221.359 152.576C218.743 152.576 216.571 151.688 214.843 149.912C213.139 148.088 212.287 145.844 212.287 143.18C212.287 140.468 213.139 138.224 214.843 136.448C216.571 134.672 218.743 133.784 221.359 133.784C223.159 133.784 224.731 134.24 226.075 135.152C227.419 136.04 228.427 137.276 229.099 138.86L226.075 140.12C225.139 137.912 223.495 136.808 221.143 136.808C219.631 136.808 218.323 137.42 217.219 138.644C216.139 139.868 215.599 141.38 215.599 143.18C215.599 144.98 216.139 146.492 217.219 147.716C218.323 148.94 219.631 149.552 221.143 149.552C223.567 149.552 225.271 148.448 226.255 146.24L229.207 147.5C228.559 149.084 227.539 150.332 226.147 151.244C224.779 152.132 223.183 152.576 221.359 152.576ZM230.92 143.18C230.92 140.468 231.772 138.224 233.476 136.448C235.204 134.672 237.376 133.784 239.992 133.784C242.608 133.784 244.768 134.672 246.472 136.448C248.2 138.224 249.064 140.468 249.064 143.18C249.064 145.916 248.2 148.16 246.472 149.912C244.768 151.688 242.608 152.576 239.992 152.576C237.376 152.576 235.204 151.688 233.476 149.912C231.772 148.136 230.92 145.892 230.92 143.18ZM234.232 143.18C234.232 145.076 234.784 146.612 235.888 147.788C236.992 148.964 238.36 149.552 239.992 149.552C241.624 149.552 242.992 148.964 244.096 147.788C245.2 146.612 245.752 145.076 245.752 143.18C245.752 141.308 245.2 139.784 244.096 138.608C242.968 137.408 241.6 136.808 239.992 136.808C238.384 136.808 237.016 137.408 235.888 138.608C234.784 139.784 234.232 141.308 234.232 143.18ZM255.033 152H251.721V134.36H254.889V136.808H255.033C255.537 135.944 256.305 135.224 257.337 134.648C258.393 134.072 259.437 133.784 260.469 133.784C261.765 133.784 262.905 134.084 263.889 134.684C264.873 135.284 265.593 136.112 266.049 137.168C267.513 134.912 269.541 133.784 272.133 133.784C274.173 133.784 275.745 134.408 276.849 135.656C277.953 136.904 278.505 138.68 278.505 140.984V152H275.193V141.488C275.193 139.832 274.893 138.644 274.293 137.924C273.693 137.18 272.685 136.808 271.269 136.808C269.997 136.808 268.929 137.348 268.065 138.428C267.201 139.508 266.769 140.78 266.769 142.244V152H263.457V141.488C263.457 139.832 263.157 138.644 262.557 137.924C261.957 137.18 260.949 136.808 259.533 136.808C258.261 136.808 257.193 137.348 256.329 138.428C255.465 139.508 255.033 140.78 255.033 142.244V152ZM290.297 152.576C287.705 152.576 285.569 151.688 283.889 149.912C282.209 148.136 281.369 145.892 281.369 143.18C281.369 140.492 282.185 138.26 283.817 136.484C285.449 134.684 287.537 133.784 290.081 133.784C292.697 133.784 294.773 134.636 296.309 136.34C297.869 138.02 298.649 140.384 298.649 143.432L298.613 143.792H284.753C284.801 145.52 285.377 146.912 286.481 147.968C287.585 149.024 288.905 149.552 290.441 149.552C292.553 149.552 294.209 148.496 295.409 146.384L298.361 147.824C297.569 149.312 296.465 150.476 295.049 151.316C293.657 152.156 292.073 152.576 290.297 152.576ZM285.005 141.056H295.121C295.025 139.832 294.521 138.824 293.609 138.032C292.721 137.216 291.521 136.808 290.009 136.808C288.761 136.808 287.681 137.192 286.769 137.96C285.881 138.728 285.293 139.76 285.005 141.056ZM316.572 152.288C315.132 152.288 313.932 151.844 312.972 150.956C312.036 150.068 311.556 148.832 311.532 147.248V137.384H308.436V134.36H311.532V128.96H314.844V134.36H319.164V137.384H314.844V146.168C314.844 147.344 315.072 148.148 315.528 148.58C315.984 148.988 316.5 149.192 317.076 149.192C317.34 149.192 317.592 149.168 317.832 149.12C318.096 149.048 318.336 148.964 318.552 148.868L319.596 151.82C318.732 152.132 317.724 152.288 316.572 152.288ZM321.131 143.18C321.131 140.468 321.983 138.224 323.687 136.448C325.415 134.672 327.587 133.784 330.203 133.784C332.819 133.784 334.979 134.672 336.683 136.448C338.411 138.224 339.275 140.468 339.275 143.18C339.275 145.916 338.411 148.16 336.683 149.912C334.979 151.688 332.819 152.576 330.203 152.576C327.587 152.576 325.415 151.688 323.687 149.912C321.983 148.136 321.131 145.892 321.131 143.18ZM324.443 143.18C324.443 145.076 324.995 146.612 326.099 147.788C327.203 148.964 328.571 149.552 330.203 149.552C331.835 149.552 333.203 148.964 334.307 147.788C335.411 146.612 335.963 145.076 335.963 143.18C335.963 141.308 335.411 139.784 334.307 138.608C333.179 137.408 331.811 136.808 330.203 136.808C328.595 136.808 327.227 137.408 326.099 138.608C324.995 139.784 324.443 141.308 324.443 143.18ZM353.506 152H350.194V134.36H353.362V136.808H353.506C354.01 135.944 354.778 135.224 355.81 134.648C356.866 134.072 357.91 133.784 358.942 133.784C360.238 133.784 361.378 134.084 362.362 134.684C363.346 135.284 364.066 136.112 364.522 137.168C365.986 134.912 368.014 133.784 370.606 133.784C372.646 133.784 374.218 134.408 375.322 135.656C376.426 136.904 376.978 138.68 376.978 140.984V152H373.666V141.488C373.666 139.832 373.366 138.644 372.766 137.924C372.166 137.18 371.158 136.808 369.742 136.808C368.47 136.808 367.402 137.348 366.538 138.428C365.674 139.508 365.242 140.78 365.242 142.244V152H361.93V141.488C361.93 139.832 361.63 138.644 361.03 137.924C360.43 137.18 359.422 136.808 358.006 136.808C356.734 136.808 355.666 137.348 354.802 138.428C353.938 139.508 353.506 140.78 353.506 142.244V152ZM396.266 134.36L385.214 159.776H381.794L385.898 150.884L378.626 134.36H382.226L387.482 147.032H387.554L392.666 134.36H396.266Z" fill="white"/>
<path d="M141.042 199.136H157.89C157.986 199.52 158.066 199.984 158.13 200.528C158.194 201.072 158.226 201.616 158.226 202.16C158.226 204.368 157.89 206.448 157.218 208.4C156.546 210.352 155.49 212.096 154.05 213.632C152.514 215.264 150.674 216.528 148.53 217.424C146.386 218.32 143.938 218.768 141.186 218.768C138.69 218.768 136.338 218.32 134.13 217.424C131.922 216.528 130.002 215.28 128.37 213.68C126.738 212.08 125.442 210.192 124.482 208.016C123.522 205.808 123.042 203.408 123.042 200.816C123.042 198.224 123.522 195.84 124.482 193.664C125.442 191.456 126.738 189.552 128.37 187.952C130.002 186.352 131.922 185.104 134.13 184.208C136.338 183.312 138.69 182.864 141.186 182.864C143.97 182.864 146.45 183.344 148.626 184.304C150.834 185.264 152.722 186.592 154.29 188.288L149.826 192.656C148.706 191.472 147.458 190.576 146.082 189.968C144.706 189.328 143.058 189.008 141.138 189.008C139.57 189.008 138.082 189.296 136.674 189.872C135.266 190.416 134.034 191.2 132.978 192.224C131.922 193.248 131.074 194.496 130.434 195.968C129.826 197.408 129.522 199.024 129.522 200.816C129.522 202.608 129.826 204.24 130.434 205.712C131.074 207.152 131.922 208.384 132.978 209.408C134.066 210.432 135.314 211.232 136.722 211.808C138.13 212.352 139.634 212.624 141.234 212.624C143.058 212.624 144.594 212.368 145.842 211.856C147.122 211.312 148.21 210.624 149.106 209.792C149.746 209.216 150.29 208.496 150.738 207.632C151.218 206.736 151.586 205.744 151.842 204.656H141.042V199.136ZM166.317 191.072C165.773 191.072 165.245 190.976 164.733 190.784C164.253 190.56 163.821 190.272 163.437 189.92C163.085 189.536 162.797 189.104 162.573 188.624C162.381 188.144 162.285 187.616 162.285 187.04C162.285 186.464 162.381 185.936 162.573 185.456C162.797 184.976 163.085 184.56 163.437 184.208C163.821 183.824 164.253 183.536 164.733 183.344C165.245 183.12 165.773 183.008 166.317 183.008C167.437 183.008 168.397 183.408 169.197 184.208C169.997 184.976 170.397 185.92 170.397 187.04C170.397 188.16 169.997 189.12 169.197 189.92C168.397 190.688 167.437 191.072 166.317 191.072ZM163.197 218V194.48H169.485V218H163.197ZM177.593 199.856H173.465V194.48H177.593V187.28H183.881V194.48H189.641V199.856H183.881V208.976C183.881 209.52 183.929 210.032 184.025 210.512C184.153 210.96 184.377 211.344 184.697 211.664C185.145 212.176 185.785 212.432 186.617 212.432C187.161 212.432 187.593 212.384 187.913 212.288C188.233 212.16 188.537 212 188.825 211.808L190.601 217.328C189.865 217.68 189.065 217.936 188.201 218.096C187.369 218.288 186.441 218.384 185.417 218.384C184.233 218.384 183.161 218.208 182.201 217.856C181.273 217.472 180.489 216.96 179.849 216.32C178.345 214.88 177.593 212.832 177.593 210.176V199.856ZM194.501 183.632H200.789V193.28L200.405 197.552H200.789C201.461 196.432 202.421 195.52 203.669 194.816C204.949 194.08 206.373 193.712 207.941 193.712C210.981 193.712 213.221 194.608 214.661 196.4C216.133 198.192 216.869 200.64 216.869 203.744V218H210.581V204.512C210.581 202.88 210.197 201.648 209.429 200.816C208.661 199.952 207.589 199.52 206.213 199.52C205.349 199.52 204.581 199.712 203.909 200.096C203.237 200.448 202.661 200.944 202.181 201.584C201.733 202.224 201.381 202.976 201.125 203.84C200.901 204.672 200.789 205.568 200.789 206.528V218H194.501V183.632ZM238.335 214.928H237.951C237.215 216.112 236.223 217.056 234.975 217.76C233.727 218.432 232.303 218.768 230.703 218.768C227.727 218.768 225.503 217.856 224.031 216.032C222.591 214.208 221.871 211.776 221.871 208.736V194.48H228.159V207.968C228.159 209.664 228.527 210.928 229.263 211.76C230.031 212.56 231.135 212.96 232.575 212.96C233.439 212.96 234.191 212.784 234.831 212.432C235.503 212.048 236.063 211.552 236.511 210.944C236.991 210.304 237.343 209.568 237.567 208.736C237.823 207.872 237.951 206.96 237.951 206V194.48H244.239V218H238.335V214.928ZM249.626 183.632H255.914V193.952L255.53 197.312H255.914C256.49 196.32 257.386 195.472 258.602 194.768C259.818 194.064 261.322 193.712 263.114 193.712C264.618 193.712 266.042 194.032 267.386 194.672C268.762 195.28 269.962 196.144 270.986 197.264C272.042 198.352 272.874 199.664 273.482 201.2C274.09 202.736 274.394 204.416 274.394 206.24C274.394 208.064 274.09 209.744 273.482 211.28C272.874 212.816 272.042 214.144 270.986 215.264C269.962 216.352 268.762 217.216 267.386 217.856C266.042 218.464 264.618 218.768 263.114 218.768C261.322 218.768 259.818 218.416 258.602 217.712C257.386 217.008 256.49 216.16 255.914 215.168H255.53V218H249.626V183.632ZM261.818 212.96C262.65 212.96 263.434 212.8 264.17 212.48C264.938 212.16 265.61 211.712 266.186 211.136C266.762 210.56 267.226 209.856 267.578 209.024C267.93 208.192 268.106 207.264 268.106 206.24C268.106 205.216 267.93 204.288 267.578 203.456C267.226 202.624 266.762 201.92 266.186 201.344C265.61 200.768 264.938 200.32 264.17 200C263.434 199.68 262.65 199.52 261.818 199.52C260.986 199.52 260.186 199.68 259.418 200C258.682 200.288 258.026 200.72 257.45 201.296C256.874 201.872 256.41 202.576 256.058 203.408C255.706 204.24 255.53 205.184 255.53 206.24C255.53 207.296 255.706 208.24 256.058 209.072C256.41 209.904 256.874 210.608 257.45 211.184C258.026 211.76 258.682 212.208 259.418 212.528C260.186 212.816 260.986 212.96 261.818 212.96ZM289.722 218V183.632H301.818C303.45 183.632 304.97 183.904 306.378 184.448C307.818 184.96 309.066 185.696 310.122 186.656C311.178 187.616 312.01 188.768 312.618 190.112C313.226 191.424 313.53 192.88 313.53 194.48C313.53 196.112 313.226 197.6 312.618 198.944C312.01 200.256 311.178 201.392 310.122 202.352C309.066 203.312 307.818 204.064 306.378 204.608C304.97 205.12 303.45 205.376 301.818 205.376H296.202V218H289.722ZM301.914 199.232C303.61 199.232 304.89 198.752 305.754 197.792C306.618 196.832 307.05 195.728 307.05 194.48C307.05 193.872 306.938 193.28 306.714 192.704C306.522 192.128 306.202 191.632 305.754 191.216C305.338 190.768 304.81 190.416 304.17 190.16C303.53 189.904 302.778 189.776 301.914 189.776H296.202V199.232H301.914ZM317.36 194.48H323.264V197.744H323.648C323.936 197.168 324.32 196.64 324.8 196.16C325.28 195.68 325.808 195.264 326.384 194.912C326.992 194.56 327.632 194.288 328.304 194.096C329.008 193.904 329.696 193.808 330.368 193.808C331.2 193.808 331.904 193.888 332.48 194.048C333.088 194.208 333.6 194.416 334.016 194.672L332.336 200.384C331.952 200.192 331.52 200.048 331.04 199.952C330.592 199.824 330.032 199.76 329.36 199.76C328.496 199.76 327.712 199.936 327.008 200.288C326.304 200.608 325.696 201.072 325.184 201.68C324.704 202.288 324.32 203.008 324.032 203.84C323.776 204.64 323.648 205.52 323.648 206.48V218H317.36V194.48ZM346.59 193.712C348.414 193.712 350.078 194.032 351.582 194.672C353.118 195.28 354.43 196.144 355.518 197.264C356.638 198.352 357.502 199.664 358.11 201.2C358.75 202.736 359.07 204.416 359.07 206.24C359.07 208.064 358.75 209.744 358.11 211.28C357.502 212.816 356.638 214.144 355.518 215.264C354.43 216.352 353.118 217.216 351.582 217.856C350.078 218.464 348.414 218.768 346.59 218.768C344.766 218.768 343.086 218.464 341.55 217.856C340.046 217.216 338.734 216.352 337.614 215.264C336.526 214.144 335.662 212.816 335.022 211.28C334.414 209.744 334.11 208.064 334.11 206.24C334.11 204.416 334.414 202.736 335.022 201.2C335.662 199.664 336.526 198.352 337.614 197.264C338.734 196.144 340.046 195.28 341.55 194.672C343.086 194.032 344.766 193.712 346.59 193.712ZM346.59 212.96C347.39 212.96 348.158 212.816 348.894 212.528C349.662 212.208 350.334 211.76 350.91 211.184C351.486 210.608 351.934 209.904 352.254 209.072C352.606 208.24 352.782 207.296 352.782 206.24C352.782 205.184 352.606 204.24 352.254 203.408C351.934 202.576 351.486 201.872 350.91 201.296C350.334 200.72 349.662 200.288 348.894 200C348.158 199.68 347.39 199.52 346.59 199.52C345.758 199.52 344.974 199.68 344.238 200C343.502 200.288 342.846 200.72 342.27 201.296C341.694 201.872 341.23 202.576 340.878 203.408C340.558 204.24 340.398 205.184 340.398 206.24C340.398 207.296 340.558 208.24 340.878 209.072C341.23 209.904 341.694 210.608 342.27 211.184C342.846 211.76 343.502 212.208 344.238 212.528C344.974 212.816 345.758 212.96 346.59 212.96ZM371.383 218H365.095V199.856H360.871V194.48H365.095V192.176C365.095 190.736 365.303 189.472 365.719 188.384C366.167 187.264 366.791 186.336 367.591 185.6C368.391 184.832 369.335 184.256 370.423 183.872C371.511 183.456 372.711 183.248 374.023 183.248C374.663 183.248 375.175 183.28 375.559 183.344C375.943 183.408 376.311 183.504 376.663 183.632L376.279 189.536C376.055 189.44 375.799 189.36 375.511 189.296C375.223 189.232 374.855 189.2 374.407 189.2C373.479 189.2 372.743 189.504 372.199 190.112C371.655 190.688 371.383 191.504 371.383 192.56V194.48H386.551V218H380.263V199.856H371.383V218ZM383.383 191.072C382.839 191.072 382.311 190.976 381.799 190.784C381.319 190.56 380.887 190.272 380.503 189.92C380.151 189.536 379.863 189.104 379.639 188.624C379.447 188.144 379.351 187.616 379.351 187.04C379.351 186.464 379.447 185.936 379.639 185.456C379.863 184.976 380.151 184.56 380.503 184.208C380.887 183.824 381.319 183.536 381.799 183.344C382.311 183.12 382.839 183.008 383.383 183.008C384.503 183.008 385.463 183.408 386.263 184.208C387.063 184.976 387.463 185.92 387.463 187.04C387.463 188.16 387.063 189.12 386.263 189.92C385.463 190.688 384.503 191.072 383.383 191.072ZM392.313 218V183.632H398.601V218H392.313ZM426.023 212.336C424.935 214.256 423.463 215.808 421.607 216.992C419.783 218.176 417.543 218.768 414.887 218.768C413.095 218.768 411.431 218.464 409.895 217.856C408.391 217.216 407.079 216.336 405.959 215.216C404.839 214.096 403.959 212.784 403.319 211.28C402.711 209.744 402.407 208.064 402.407 206.24C402.407 204.544 402.711 202.944 403.319 201.44C403.927 199.904 404.775 198.576 405.863 197.456C406.951 196.304 408.231 195.392 409.703 194.72C411.207 194.048 412.855 193.712 414.647 193.712C416.535 193.712 418.215 194.032 419.687 194.672C421.159 195.28 422.391 196.144 423.383 197.264C424.375 198.352 425.127 199.648 425.639 201.152C426.151 202.656 426.406 204.288 426.406 206.048C426.406 206.272 426.406 206.464 426.406 206.624C426.375 206.816 426.359 206.992 426.359 207.152C426.327 207.312 426.311 207.488 426.311 207.68H408.599C408.727 208.64 408.983 209.472 409.367 210.176C409.783 210.848 410.279 211.424 410.855 211.904C411.463 212.352 412.119 212.688 412.823 212.912C413.527 213.104 414.247 213.2 414.983 213.2C416.423 213.2 417.607 212.88 418.535 212.24C419.495 211.568 420.247 210.736 420.791 209.744L426.023 212.336ZM420.311 203.216C420.279 202.8 420.135 202.336 419.879 201.824C419.655 201.312 419.303 200.832 418.823 200.384C418.375 199.936 417.799 199.568 417.095 199.28C416.423 198.992 415.607 198.848 414.647 198.848C413.303 198.848 412.119 199.232 411.095 200C410.071 200.768 409.351 201.84 408.935 203.216H420.311Z" fill="white"/>
<path d="M424.186 95.6035C425.153 92.9917 428.847 92.9917 429.814 95.6035L433.274 104.954C433.577 105.775 434.225 106.423 435.046 106.726L444.396 110.186C447.008 111.153 447.008 114.847 444.396 115.814L435.046 119.274C434.225 119.577 433.577 120.225 433.274 121.046L429.814 130.396C428.847 133.008 425.153 133.008 424.186 130.396L420.726 121.046C420.423 120.225 419.775 119.577 418.954 119.274L409.604 115.814C406.992 114.847 406.992 111.153 409.604 110.186L418.954 106.726C419.775 106.423 420.423 105.775 420.726 104.954L424.186 95.6035Z" fill="#EACF2C"/>
<path d="M451.624 126.069C452.269 124.328 454.731 124.328 455.376 126.069L457.907 132.911C458.11 133.458 458.542 133.89 459.089 134.093L465.931 136.624C467.672 137.269 467.672 139.731 465.931 140.376L459.089 142.907C458.542 143.11 458.11 143.542 457.907 144.089L455.376 150.931C454.731 152.672 452.269 152.672 451.624 150.931L449.093 144.089C448.89 143.542 448.458 143.11 447.911 142.907L441.069 140.376C439.328 139.731 439.328 137.269 441.069 136.624L447.911 134.093C448.458 133.89 448.89 133.458 449.093 132.911L451.624 126.069Z" fill="#E089FF"/>
</svg>
